<?xml version="1.0" standalone="no"?>
<!DOCTYPE svg PUBLIC "-//W3C//DTD SVG 20010904//EN"
 "http://www.w3.org/TR/2001/REC-SVG-20010904/DTD/svg10.dtd">
<svg version="1.0" xmlns="http://www.w3.org/2000/svg"
 width="512.000000pt" height="512.000000pt" viewBox="0 0 512.000000 512.000000"
 preserveAspectRatio="xMidYMid meet">
<metadata>
Created by potrace 1.14, written by Peter Selinger 2001-2017
</metadata>
<g transform="translate(0.000000,512.000000) scale(0.100000,-0.100000)"
fill="#000000" stroke="none">
<path d="M1434 4679 c-1 -16 2 -29 6 -29 7 0 7 46 0 54 -3 2 -6 -9 -6 -25z"/>
<path d="M1575 4701 c3 -5 1 -12 -5 -16 -6 -4 -8 -9 -6 -13 6 -10 -16 -37 -34
-40 -8 -1 -4 7 10 18 20 15 21 20 8 20 -9 0 -24 -10 -32 -22 -9 -12 -19 -18
-23 -14 -4 4 -2 11 6 15 7 5 13 12 14 17 1 5 7 8 12 6 6 -2 4 3 -3 10 -11 11
-15 10 -23 -4 -6 -10 -15 -18 -20 -18 -6 0 -8 4 -5 8 2 4 0 14 -6 22 -8 12 -9
12 -4 -2 3 -10 2 -18 -3 -18 -4 0 -8 -7 -8 -15 0 -10 6 -14 16 -10 12 5 13 4
4 -6 -9 -9 -18 -8 -38 5 -14 9 -23 21 -20 26 4 6 -1 7 -11 3 -13 -5 -15 -3 -9
8 5 8 4 11 0 6 -16 -14 -14 -36 3 -30 15 4 15 3 2 -7 -13 -10 -12 -11 3 -6 11
3 16 2 12 -4 -3 -6 -1 -10 6 -10 7 0 9 -3 6 -6 -4 -4 -18 1 -32 10 -25 17 -34
9 -14 -11 16 -16 -6 -27 -28 -14 -13 7 -23 5 -35 -6 -11 -10 -18 -12 -18 -5 0
7 4 12 8 12 13 0 11 33 -2 49 -9 11 -6 13 14 6 28 -8 26 -3 -7 14 -17 9 -21 8
-19 -4 1 -8 5 -17 9 -21 9 -10 -12 -46 -24 -39 -8 6 -13 -8 -10 -27 0 -4 -9
-3 -22 1 -12 5 -21 16 -19 25 2 9 -1 16 -6 16 -17 0 -21 -13 -10 -34 10 -18 9
-19 -4 -9 -8 7 -19 9 -23 5 -5 -4 -5 1 -2 11 4 9 2 17 -4 17 -7 0 -9 -11 -7
-25 5 -22 3 -23 -16 -13 -28 15 -66 19 -66 6 0 -5 10 -6 23 -3 21 7 21 6 3 -7
-10 -8 -30 -14 -43 -12 -13 1 -21 -2 -17 -7 3 -5 10 -6 16 -3 7 5 8 2 4 -5 -5
-7 0 -19 10 -27 18 -14 18 -14 -3 -4 -12 5 -29 20 -37 32 -9 12 -16 19 -16 15
0 -12 24 -51 40 -64 12 -11 10 -11 -12 -2 -16 7 -28 19 -29 28 0 10 -4 7 -10
-8 -6 -16 -6 -28 1 -36 9 -10 7 -13 -7 -10 -10 1 -17 7 -16 13 1 6 -5 9 -15 7
-10 -1 -16 -9 -14 -20 2 -10 -1 -14 -8 -10 -6 4 -17 1 -25 -5 -8 -6 -20 -8
-27 -4 -7 4 -9 3 -5 -1 4 -5 -3 -15 -15 -22 -13 -7 -17 -12 -10 -13 7 0 10 -5
6 -12 -5 -7 -11 -5 -21 7 -7 11 -13 14 -13 8 0 -7 5 -15 10 -18 6 -4 7 -11 4
-17 -4 -6 -10 -5 -16 3 -8 11 -9 11 -5 -1 2 -8 -2 -22 -9 -31 -12 -13 -12 -16
1 -16 8 0 11 5 8 11 -4 6 1 5 10 -3 18 -15 23 -26 7 -16 -5 3 -10 -1 -10 -9 0
-20 -17 -29 -26 -15 -4 8 -3 9 4 5 7 -4 12 -2 12 3 0 16 -16 13 -31 -6 -8 -9
-9 -14 -3 -10 7 4 14 1 17 -7 4 -10 0 -12 -14 -9 -10 3 -19 9 -19 14 0 5 -5 9
-11 9 -8 0 -8 -4 0 -14 10 -12 9 -17 -6 -24 -10 -5 -25 -7 -33 -5 -13 4 -13 3
0 -6 8 -5 18 -7 22 -5 4 3 8 -2 8 -10 0 -19 -11 -21 -27 -5 -9 9 -11 8 -9 -4
1 -9 6 -20 11 -24 4 -4 5 -2 0 6 -5 10 -4 12 4 7 6 -4 9 -12 6 -17 -8 -12 -11
-12 -29 7 -9 8 -16 11 -16 5 0 -6 15 -20 33 -31 29 -19 30 -20 7 -16 -14 2
-34 -2 -45 -10 -13 -10 -15 -14 -4 -14 12 0 12 -2 -1 -10 -9 -6 -20 -5 -30 3
-10 8 -9 5 3 -9 22 -26 22 -41 0 -23 -11 9 -14 10 -9 2 4 -7 2 -21 -4 -32 -7
-13 -7 -22 0 -26 12 -7 4 -25 -11 -25 -6 0 -8 4 -5 8 3 5 -1 9 -9 9 -13 0 -12
-4 2 -19 18 -20 38 -25 27 -6 -4 7 -3 8 4 4 7 -4 10 1 7 14 -3 13 0 18 7 14 7
-5 8 -2 3 6 -6 9 -4 11 5 5 9 -5 11 -4 6 4 -4 6 -12 9 -17 6 -18 -12 -8 7 14
26 16 13 18 19 7 19 -12 0 -11 3 3 11 26 15 33 3 12 -21 -14 -15 -15 -20 -4
-20 11 0 11 -2 -1 -10 -8 -5 -11 -10 -6 -10 5 0 2 -7 -5 -16 -20 -24 -21 -47
-1 -40 15 5 15 5 0 -7 -10 -8 -15 -17 -12 -20 8 -8 -15 -47 -27 -47 -6 0 -3 7
5 16 18 18 22 39 4 28 -7 -5 -8 -2 -3 7 5 8 5 11 0 7 -4 -4 -14 -3 -22 3 -8 8
-13 8 -13 1 0 -6 6 -13 13 -16 9 -3 7 -9 -6 -19 -15 -13 -16 -15 -2 -21 13 -4
13 -9 3 -25 -7 -11 -16 -17 -20 -15 -4 3 -8 3 -8 -1 0 -3 15 -14 33 -25 17
-11 27 -20 22 -20 -6 0 -11 -12 -11 -27 -1 -32 -23 -85 -34 -78 -4 2 -7 -2 -7
-10 0 -12 3 -12 14 -3 22 18 35 -10 17 -36 -18 -27 -18 -47 1 -22 13 18 14 18
12 -2 0 -11 -5 -18 -10 -15 -5 3 -6 -5 -2 -18 7 -24 7 -24 -9 -4 -16 19 -16
19 -5 -7 9 -20 16 -25 24 -18 8 7 12 5 12 -5 0 -8 -4 -12 -9 -9 -4 3 -8 -1 -8
-8 -1 -8 -6 -6 -15 6 -8 11 -15 15 -15 9 0 -16 23 -31 43 -27 18 2 18 1 2 -16
-11 -13 -13 -19 -4 -22 9 -3 9 -9 0 -26 -10 -20 -9 -24 11 -32 l23 -11 -22 5
c-13 2 -23 0 -23 -6 0 -6 -7 -8 -15 -4 -13 5 -14 2 -3 -17 15 -27 23 -81 11
-74 -5 3 -10 -4 -10 -15 -2 -19 -1 -20 11 -2 11 15 17 16 28 6 8 -6 18 -8 23
-4 4 4 3 -3 -3 -14 -12 -23 -5 -35 28 -47 12 -4 12 -6 -2 -6 -9 -1 -20 4 -23
9 -4 6 -10 8 -14 6 -4 -3 -8 1 -9 9 -1 8 -3 22 -4 30 -1 10 -5 12 -11 6 -5 -5
-6 -15 -1 -23 5 -7 9 -17 10 -23 1 -5 5 -19 9 -30 7 -20 6 -20 -9 -1 -9 11
-16 14 -16 7 0 -7 -5 -9 -10 -6 -6 3 -10 1 -10 -5 0 -6 7 -10 16 -8 10 2 19
-3 22 -11 3 -8 0 -11 -7 -7 -7 4 -9 2 -5 -8 3 -8 12 -17 21 -20 12 -5 13 -9 3
-21 -7 -8 -9 -15 -4 -15 5 0 2 -5 -6 -11 -13 -9 -13 -10 2 -6 24 8 30 -4 10
-20 -9 -8 -11 -12 -4 -8 14 7 42 -11 42 -27 0 -6 -7 -4 -17 3 -15 13 -15 12
-2 -8 8 -13 16 -23 19 -23 11 0 9 45 -3 52 -7 4 -4 7 9 6 16 -2 20 -9 20 -40
0 -21 -3 -38 -6 -38 -10 0 -8 -34 3 -47 6 -9 6 -13 -1 -13 -6 0 -14 5 -17 10
-3 6 -12 10 -18 9 -8 0 -8 -2 1 -6 10 -4 10 -8 1 -20 -10 -11 -10 -14 2 -11
10 2 14 -7 14 -29 0 -26 2 -29 14 -20 12 10 14 9 8 -6 -4 -10 -7 -23 -7 -28 0
-6 -4 -8 -8 -5 -10 6 -9 -24 1 -41 4 -7 0 -16 -10 -22 -10 -6 -13 -11 -8 -11
6 0 16 5 23 12 9 9 12 9 12 -1 0 -11 3 -11 17 0 16 13 17 12 4 -3 -7 -10 -17
-16 -21 -13 -5 3 -11 1 -15 -5 -6 -10 6 -14 35 -11 13 2 13 1 0 -8 -8 -5 -19
-7 -25 -4 -5 3 -5 0 2 -7 6 -7 9 -19 6 -28 -5 -11 -3 -13 7 -7 8 5 11 4 6 -3
-3 -6 -2 -13 4 -17 5 -3 10 -11 10 -17 0 -6 -9 1 -21 16 -11 14 -17 31 -13 37
4 7 3 9 -4 5 -6 -3 -10 -15 -9 -26 1 -10 5 -16 9 -14 4 3 8 -1 8 -9 0 -8 6
-20 14 -26 16 -13 12 -61 -6 -72 -7 -4 -7 -13 0 -26 8 -14 8 -23 0 -31 -8 -8
-5 -9 10 -5 20 5 20 6 4 31 -10 15 -12 23 -4 18 7 -4 12 -4 11 1 -4 21 2 34
12 27 8 -4 7 -9 -2 -15 -10 -6 -7 -11 11 -19 23 -10 23 -10 3 -6 -27 5 -29 -1
-7 -25 20 -22 9 -46 -12 -28 -12 10 -13 9 -7 -7 6 -17 5 -17 -10 -5 -10 8 -20
11 -24 7 -3 -3 -1 -6 5 -6 6 0 9 -8 6 -17 -5 -15 -4 -16 6 -3 9 13 10 12 8 -5
-1 -11 1 -25 5 -32 4 -7 -2 -21 -15 -33 -15 -14 -18 -20 -8 -18 8 2 20 12 27
23 7 11 13 18 13 15 7 -30 7 -40 0 -40 -4 0 -11 -7 -14 -16 -5 -14 -4 -15 8
-5 9 7 17 8 20 2 3 -5 1 -11 -6 -13 -7 -3 -5 -7 6 -11 10 -4 15 -3 11 3 -15
24 4 7 21 -17 15 -24 15 -26 1 -14 -14 11 -17 11 -17 0 0 -8 -6 -5 -16 7 -14
18 -15 18 -4 -4 6 -12 15 -20 21 -17 5 4 9 1 9 -4 0 -19 2 -26 12 -45 7 -13 6
-21 -3 -27 -9 -5 -9 -9 -3 -9 7 0 14 -9 17 -20 3 -11 2 -18 -2 -16 -4 3 -12
-3 -18 -13 -9 -14 -8 -18 3 -18 7 0 11 3 9 7 -2 4 2 7 9 7 7 0 13 -6 13 -13 0
-7 -3 -12 -6 -11 -14 3 -51 -15 -51 -25 0 -6 3 -8 7 -5 3 4 13 1 22 -6 14 -11
14 -10 2 6 -9 11 -10 17 -2 17 12 0 13 -2 15 -41 1 -15 8 -35 16 -45 8 -10 10
-15 3 -11 -6 4 -14 3 -18 -2 -3 -5 3 -14 12 -20 10 -6 13 -11 6 -11 -7 0 -10
-9 -8 -20 5 -27 -4 -49 -18 -46 -7 1 -9 1 -4 -1 4 -3 5 -9 1 -14 -3 -5 -2 -9
3 -8 20 3 27 -2 14 -10 -8 -5 -16 -17 -17 -25 -1 -9 2 -14 7 -10 5 3 7 10 4
15 -4 5 1 9 9 9 8 0 18 -5 22 -12 4 -7 3 -8 -4 -4 -7 4 -12 3 -12 -3 0 -5 5
-11 12 -13 7 -3 5 -7 -6 -11 -9 -4 -15 -3 -12 2 4 5 -4 7 -16 3 -16 -4 -18 -7
-7 -11 7 -3 15 -13 15 -21 1 -8 5 -24 10 -34 6 -15 4 -17 -7 -11 -12 8 -12 6
0 -8 7 -9 9 -17 4 -17 -5 0 -9 -10 -10 -22 0 -13 1 -17 4 -10 3 6 12 12 21 12
10 0 13 3 7 8 -19 13 -5 52 18 52 7 0 4 -5 -5 -11 -9 -5 -15 -16 -12 -24 4 -8
11 -12 18 -8 6 4 5 -1 -3 -11 -13 -15 -12 -17 12 -12 15 2 29 1 32 -4 3 -4 -3
-7 -12 -5 -10 1 -30 -4 -44 -11 -15 -7 -28 -11 -31 -9 -2 2 -4 -4 -4 -15 0
-10 3 -17 7 -14 4 2 10 -3 13 -12 9 -24 7 -28 -8 -15 -11 9 -16 9 -22 0 -4 -7
-3 -9 4 -5 6 3 15 -1 20 -10 7 -13 13 -14 30 -5 15 8 23 8 28 -1 4 -7 3 -8 -5
-4 -6 4 -14 0 -17 -8 -3 -9 -11 -13 -17 -9 -6 3 -7 1 -3 -6 4 -6 13 -8 19 -4
7 4 21 9 32 10 16 2 17 1 5 -6 -8 -5 -17 -8 -21 -5 -11 6 -19 -24 -12 -43 6
-16 5 -16 -11 -4 -16 13 -16 12 1 -17 17 -30 19 -30 27 -12 5 11 13 20 18 20
13 0 10 -18 -4 -23 -10 -3 -10 -9 -1 -25 7 -12 10 -29 6 -39 -6 -16 -5 -16 10
-4 10 7 17 9 17 3 0 -6 -5 -12 -11 -14 -9 -3 -9 -10 1 -27 7 -15 8 -21 1 -17
-7 4 -11 -1 -11 -13 0 -12 5 -21 12 -21 6 0 8 -3 5 -7 -4 -3 -2 -12 4 -19 7
-9 6 -12 -8 -9 -10 1 -17 8 -15 14 1 7 -5 22 -14 34 -15 19 -16 20 -9 2 5 -11
8 -37 8 -57 0 -38 9 -48 23 -26 4 6 3 8 -3 5 -5 -3 -10 0 -10 7 0 8 6 12 14 9
19 -7 16 -20 -9 -37 -26 -19 -17 -21 15 -5 22 11 22 11 -1 -14 -16 -17 -20
-27 -12 -32 7 -4 8 -11 2 -18 -23 -29 1 -59 25 -32 4 4 2 5 -6 0 -10 -6 -12
-4 -6 5 5 9 4 11 -3 6 -17 -10 -15 3 2 20 9 9 17 10 21 4 3 -5 1 -10 -5 -10
-6 0 -8 -5 -3 -12 12 -20 12 -39 1 -32 -6 4 -8 -2 -4 -17 7 -23 7 -23 -8 -5
-9 11 -16 15 -16 9 0 -7 5 -15 10 -18 6 -3 10 -11 10 -17 0 -7 -5 -6 -14 1
-11 9 -16 9 -22 -1 -4 -7 -4 -10 1 -6 4 4 14 3 22 -3 7 -6 13 -8 13 -4 0 4 7
2 15 -5 11 -9 12 -17 4 -34 -9 -19 -9 -19 4 -4 8 10 17 15 20 11 6 -6 11 12 8
30 -2 12 6 8 20 -10 8 -9 9 -14 3 -10 -7 4 -11 -3 -11 -20 0 -24 1 -25 12 -10
13 18 31 24 20 8 -3 -6 3 -14 12 -20 10 -6 13 -11 7 -11 -5 0 -15 5 -22 12
-28 28 -9 -11 22 -45 18 -20 29 -37 23 -37 -6 0 -2 -7 9 -16 10 -8 13 -13 7
-9 -7 3 -13 1 -13 -4 0 -6 5 -11 10 -11 19 0 25 -2 37 -12 7 -6 11 -14 8 -18
-3 -5 0 -12 6 -16 8 -5 9 -3 4 6 -6 9 -2 10 16 5 21 -7 22 -6 10 8 -7 9 -17
15 -21 12 -4 -3 -13 2 -20 10 -7 8 -15 13 -19 11 -3 -2 -7 7 -7 20 -1 13 2 21
7 18 5 -3 9 -10 9 -15 0 -13 21 -33 40 -37 18 -4 31 -23 24 -34 -9 -14 7 -48
22 -48 10 0 13 6 9 19 -4 12 0 21 11 25 14 5 15 4 5 -8 -9 -11 -9 -15 1 -18
11 -4 11 -8 0 -20 -10 -13 -10 -18 -1 -24 7 -4 9 -3 5 4 -3 6 -1 14 5 17 5 4
8 13 5 21 -3 7 -1 16 3 19 5 3 8 -8 7 -25 -2 -21 1 -27 9 -20 7 6 16 6 20 2 5
-4 6 -2 2 3 -3 6 -2 16 2 23 4 8 11 5 20 -9 7 -12 8 -18 2 -14 -6 3 -11 1 -11
-5 0 -7 6 -10 13 -7 6 2 12 11 11 19 -1 8 4 15 11 15 13 0 10 -22 -6 -42 -5
-7 0 -11 14 -12 12 -1 17 1 10 5 -8 5 -6 14 8 32 18 23 19 23 9 3 -8 -17 -8
-23 0 -23 6 0 8 -6 4 -13 -4 -6 2 -3 14 7 12 11 22 15 22 10 0 -5 8 0 17 11
12 16 14 17 10 3 -4 -12 1 -21 16 -29 18 -9 20 -9 10 2 -7 7 -13 18 -13 24 0
5 4 4 9 -3 4 -7 14 -14 22 -15 8 -2 19 -6 26 -10 6 -4 14 -3 18 2 3 6 12 8 19
5 8 -3 17 -1 20 4 3 5 -6 8 -19 6 -14 -1 -25 1 -25 6 0 4 12 8 26 8 15 0 30 5
34 12 5 8 9 7 14 -5 3 -9 10 -13 16 -10 6 3 13 -1 16 -9 5 -14 8 -14 21 -1 17
18 37 20 27 3 -4 -7 -3 -8 4 -4 8 5 9 13 2 26 -7 13 -6 21 5 30 12 10 13 8 10
-9 -5 -27 9 -35 26 -14 10 12 10 14 1 9 -6 -4 -12 -2 -12 3 0 20 29 11 35 -10
4 -11 9 -18 12 -16 2 3 0 15 -7 26 -8 16 -8 26 0 39 10 15 11 15 6 -3 -6 -20
-6 -20 9 -1 13 17 15 17 15 4 0 -9 4 -20 10 -23 6 -4 7 1 3 11 -4 11 -3 15 5
10 6 -3 14 -1 18 5 4 7 3 10 -2 7 -5 -3 -22 1 -39 8 -24 11 -26 13 -9 14 25 0
87 56 79 70 -4 6 -1 10 5 10 7 0 9 -8 5 -23 -6 -17 -5 -20 5 -10 9 8 19 9 32
2 10 -5 18 -7 18 -3 0 3 8 0 18 -7 15 -13 16 -12 3 3 -7 10 -17 16 -21 13 -14
-9 -40 25 -33 42 5 12 3 14 -7 8 -9 -5 -11 -4 -6 4 6 9 11 9 22 0 11 -9 12
-14 4 -19 -8 -5 -6 -9 6 -14 9 -3 19 -4 22 -1 3 3 -1 5 -8 5 -7 0 -10 3 -7 7
4 3 0 17 -9 31 -9 13 -12 22 -6 18 14 -9 57 28 48 43 -4 6 -11 9 -16 6 -5 -3
-11 -1 -14 4 -7 10 9 9 37 -4 14 -6 15 -10 5 -24 -7 -9 -8 -13 -4 -9 5 4 16 2
25 -5 14 -11 15 -10 1 7 -14 18 -13 19 5 13 14 -5 12 -1 -8 14 -15 11 -25 25
-21 30 8 13 42 11 47 -3 4 -10 6 -10 6 0 1 8 6 10 14 6 8 -5 7 -2 -2 9 -8 10
-11 20 -8 24 4 3 2 12 -4 19 -8 9 -6 11 9 7 13 -3 18 -11 15 -23 -3 -10 -1
-20 4 -23 17 -11 6 46 -12 59 -10 8 -14 14 -8 14 5 0 15 10 22 23 l11 22 -6
-24 c-4 -15 -2 -21 4 -17 6 4 15 -1 20 -10 8 -15 10 -15 15 0 4 10 3 14 -2 11
-14 -8 -25 35 -13 47 8 8 9 4 5 -13 -3 -13 -2 -21 2 -17 5 4 15 2 23 -5 13
-10 14 -9 7 2 -6 11 -4 13 9 8 11 -4 15 -3 11 4 -4 6 -13 8 -21 5 -11 -4 -13
1 -10 19 2 13 0 26 -5 29 -5 2 -4 3 3 2 7 -2 13 -8 13 -13 0 -6 3 -15 7 -19 9
-8 2 31 -8 48 -4 7 -3 8 4 4 14 -8 12 20 -3 44 -5 9 0 8 13 -4 16 -14 19 -23
12 -36 -6 -11 -5 -17 3 -17 14 0 16 35 4 55 -10 14 -1 32 16 31 9 0 9 -2 0 -6
-7 -2 -13 -9 -13 -14 0 -4 7 -6 15 -3 10 4 14 1 12 -7 -2 -8 -2 -11 0 -6 3 4
10 4 16 0 7 -4 6 1 -2 10 -7 9 -10 17 -6 17 4 0 2 7 -5 15 -10 12 -9 16 3 21
9 3 14 13 10 22 -4 15 -3 15 6 2 6 -8 11 -12 12 -7 1 4 2 10 3 15 3 17 18 32
27 27 5 -4 16 -2 25 3 15 8 15 10 0 15 -11 5 -15 3 -10 -5 4 -7 3 -8 -5 -4 -6
4 -9 11 -6 16 3 4 2 10 -2 13 -5 2 -2 2 5 1 6 -2 12 4 12 12 0 9 -5 12 -12 8
-7 -4 -8 -3 -4 4 4 6 13 9 21 6 12 -5 12 -10 3 -27 -6 -12 -7 -19 -3 -15 4 4
17 3 29 -3 19 -9 19 -9 4 4 -24 19 -23 30 2 22 12 -4 20 -2 20 5 0 6 -4 9 -9
6 -5 -3 -14 1 -21 9 -11 13 -10 14 4 9 11 -4 22 1 33 15 12 19 17 20 31 9 15
-11 15 -11 5 3 -7 9 -9 20 -5 24 4 5 1 5 -5 1 -9 -5 -13 -1 -13 11 0 15 -2 16
-10 3 -5 -8 -10 -10 -10 -4 0 17 12 25 25 14 8 -7 19 0 35 22 12 17 19 28 13
25 -5 -3 -14 3 -21 14 -7 11 -8 19 -2 19 5 0 10 -4 10 -9 0 -5 9 -11 21 -14
20 -5 20 -5 3 14 -17 19 -17 20 2 13 17 -7 18 -6 4 11 -9 11 -10 16 -2 11 6
-4 12 -2 12 3 0 6 5 11 11 11 8 0 8 -5 -1 -15 -7 -8 -8 -15 -4 -15 5 0 15 9
22 20 7 12 18 18 25 13 7 -4 7 -1 -2 10 -15 19 -26 23 -15 5 5 -7 3 -8 -6 -3
-9 5 -11 4 -6 -3 5 -8 2 -10 -8 -6 -13 5 -14 8 -1 20 15 15 36 15 46 0 4 -5
10 1 14 13 7 22 29 28 40 11 5 -8 11 -8 19 -1 9 7 17 7 26 -2 10 -9 11 -9 6 1
-4 6 -2 12 3 12 6 0 11 -7 11 -17 0 -9 3 -14 6 -10 3 3 3 15 -1 27 -6 18 -9
19 -23 8 -13 -11 -14 -11 -7 2 7 12 6 13 -7 3 -15 -13 -28 -8 -28 9 0 5 5 6
11 3 6 -4 21 3 34 15 22 21 24 21 33 3 5 -10 7 -30 5 -45 -2 -16 1 -28 7 -28
6 0 9 4 6 8 -2 4 0 14 6 22 8 12 9 12 4 -2 -3 -10 -1 -20 4 -23 13 -8 13 -25
-1 -25 -5 0 -7 4 -4 10 4 6 -1 7 -11 3 -14 -5 -13 -8 7 -19 13 -7 23 -15 22
-18 -6 -14 -2 -26 8 -26 8 0 8 4 0 13 -8 10 -7 19 5 33 15 18 15 18 5 -2 -11
-23 2 -44 26 -44 7 0 13 -5 13 -10 0 -7 -6 -7 -20 0 -14 8 -20 8 -20 0 0 -6
-4 -9 -8 -6 -5 3 -9 -1 -9 -9 0 -8 4 -12 8 -9 4 2 9 1 12 -3 2 -5 2 -2 1 4 -4
16 5 16 36 -2 14 -8 31 -14 39 -15 11 0 11 3 0 18 -13 15 -12 16 3 3 22 -16
13 -35 -13 -28 -10 3 -21 1 -24 -4 -3 -4 -13 -5 -23 -2 -9 3 -14 3 -10 -1 3
-4 14 -9 25 -11 10 -1 17 -8 15 -15 -1 -6 2 -9 7 -6 15 9 41 -50 28 -63 -7 -7
-5 -12 6 -17 9 -3 15 -10 12 -14 -3 -5 0 -12 6 -16 8 -4 9 -3 5 4 -4 7 -1 12
6 12 7 1 2 7 -11 14 -14 8 -19 16 -13 20 6 3 14 1 17 -5 4 -5 14 -8 23 -4 9 3
13 3 10 -1 -4 -3 -1 -13 7 -20 8 -8 12 -27 10 -44 -2 -17 0 -28 6 -25 5 4 9 1
9 -4 0 -6 5 -11 12 -11 6 0 3 9 -7 20 -10 11 -15 23 -12 27 4 3 7 1 7 -7 0
-10 4 -10 18 1 15 13 16 12 4 -3 -9 -11 -10 -18 -2 -23 5 -3 10 -1 10 6 0 7 3
9 6 6 4 -4 1 -13 -6 -22 -14 -17 0 -21 16 -5 7 7 11 6 11 -4 0 -8 -4 -13 -8
-10 -4 2 -11 -1 -15 -7 -4 -8 -9 -7 -15 2 -4 7 -11 10 -15 7 -3 -4 0 -14 7
-22 32 -35 37 -44 31 -52 -4 -5 1 -2 10 5 19 14 14 36 -4 25 -7 -5 -8 -2 -3 6
5 9 4 11 -3 6 -7 -4 -12 -2 -12 3 0 16 27 13 34 -4 3 -8 11 -13 18 -11 7 1 10
1 6 -1 -5 -3 -8 -9 -8 -14 0 -6 5 -7 10 -4 6 4 9 1 8 -7 -2 -7 3 -12 10 -10 8
1 11 -2 8 -7 -4 -5 -1 -11 6 -13 7 -3 5 -7 -6 -11 -11 -5 -15 -3 -10 5 4 7 3
8 -4 4 -8 -5 -9 -13 -2 -25 5 -10 7 -21 5 -25 -3 -3 -2 -3 3 0 4 3 7 11 7 17
0 5 6 11 13 13 7 1 8 0 2 -3 -7 -3 -5 -10 5 -17 15 -11 15 -13 -2 -27 -16 -13
-17 -13 -4 3 9 12 10 18 2 18 -10 0 -13 -7 -10 -27 1 -5 5 -7 10 -6 5 2 9 -2
9 -7 0 -6 7 -10 16 -10 14 0 14 3 4 15 -11 13 -10 14 4 9 10 -4 15 -12 12 -20
-3 -7 6 -20 20 -28 13 -9 23 -22 21 -29 -1 -6 5 -11 13 -9 8 2 12 0 8 -4 -4
-4 -2 -14 5 -23 11 -14 10 -14 -5 -2 -11 8 -18 9 -18 3 0 -6 5 -14 10 -17 6
-3 8 -21 6 -40 -4 -32 -3 -34 17 -22 12 7 26 18 32 25 9 11 11 10 11 -5 1 -31
8 -48 27 -61 9 -7 17 -19 17 -25 0 -8 -3 -8 -9 2 -6 9 -8 5 -8 -14 0 -15 6
-29 16 -33 9 -3 29 -19 45 -35 22 -23 31 -26 40 -17 8 10 8 11 -2 6 -8 -5 -11
-2 -10 5 2 7 -3 13 -9 14 -7 0 -12 4 -10 10 3 12 36 14 44 2 3 -6 1 -7 -5 -3
-16 9 -15 -5 1 -24 13 -16 30 -23 60 -24 15 0 16 -2 5 -11 -7 -6 -18 -20 -25
-32 -10 -17 -9 -21 2 -19 8 1 18 6 22 11 4 4 2 5 -4 1 -9 -5 -11 -2 -6 9 4 13
8 14 14 4 9 -15 39 -21 39 -7 0 5 7 3 15 -6 9 -8 23 -12 31 -9 13 5 15 1 10
-15 -4 -11 -2 -23 3 -27 7 -4 8 1 4 11 -4 12 -3 15 6 10 7 -4 10 -3 9 5 -2 6
4 14 12 16 9 3 11 1 5 -4 -13 -10 -16 -43 -4 -43 5 0 9 7 9 15 0 17 16 20 25
5 5 -8 12 -7 23 2 12 10 14 10 8 1 -5 -9 1 -13 18 -13 20 0 24 4 19 18 -5 14
-3 13 10 -3 9 -11 17 -15 17 -8 0 6 7 10 15 9 19 -3 28 -12 12 -14 -26 -1 -60
-12 -72 -22 -9 -8 -14 -6 -19 6 -4 9 -9 14 -13 11 -3 -4 -11 -2 -18 3 -8 7
-12 5 -12 -4 0 -8 7 -13 16 -11 9 1 22 -5 28 -14 11 -14 14 -14 22 -1 6 8 13
11 17 7 4 -4 14 -2 21 5 11 9 16 9 23 -2 5 -8 6 -18 3 -24 -3 -5 -1 -6 5 -2 6
4 9 13 5 21 -4 11 0 14 13 9 11 -3 15 -2 9 3 -14 12 -18 43 -5 43 6 0 8 -5 5
-10 -3 -6 1 -13 9 -16 9 -3 13 -10 10 -15 -3 -5 2 -6 10 -3 18 7 22 25 5 21
-6 -1 -14 5 -16 13 -3 9 -1 11 4 5 10 -14 39 -12 36 1 -1 6 5 11 13 11 8 0 14
-5 14 -10 0 -5 8 -3 17 4 9 8 14 9 10 3 -4 -7 -1 -14 7 -17 11 -4 13 1 10 21
l-4 27 16 -25 c8 -14 13 -17 10 -8 -3 9 3 22 12 30 15 12 16 11 3 -4 -12 -16
-11 -18 3 -18 9 0 16 3 17 8 3 36 19 71 19 43 0 -8 7 -10 19 -6 11 3 22 1 26
-5 3 -5 14 -10 23 -9 14 0 13 2 -3 8 -19 8 -19 8 0 19 11 6 15 12 8 12 -6 0
-15 -5 -18 -10 -5 -8 -11 -8 -19 -1 -7 6 -17 7 -21 3 -5 -4 -5 -1 -1 6 6 10
11 10 21 2 8 -7 15 -7 19 -1 3 5 0 12 -6 15 -7 3 -2 3 12 -1 14 -3 31 -6 38
-6 6 0 12 -5 12 -11 0 -6 4 -5 9 3 5 8 8 28 6 43 -2 19 0 26 7 22 7 -5 9 -1 5
9 -4 11 -2 14 9 10 13 -5 13 -8 -1 -23 -11 -12 -13 -20 -5 -25 5 -3 7 -11 4
-17 -4 -7 -2 -8 5 -4 9 6 9 11 0 22 -14 17 -6 18 24 3 20 -9 20 -9 5 4 -19 15
-25 33 -8 22 6 -4 7 1 3 11 -4 12 -3 15 5 10 7 -4 10 -2 6 7 -7 18 21 41 38
31 10 -6 9 -3 -1 9 -11 15 -11 17 2 17 8 0 18 -6 21 -12 3 -7 3 -2 0 11 -4 17
-3 21 6 16 9 -5 9 -3 2 11 -10 20 -10 74 1 91 8 13 -17 36 -28 25 -5 -4 -5 -1
-1 6 6 11 11 11 24 0 13 -11 15 -10 10 13 -4 23 -2 27 18 24 13 -1 21 2 18 6
-3 5 -11 9 -19 9 -8 0 -13 9 -12 20 1 21 12 26 21 11 4 -5 0 -12 -6 -15 -7 -3
-2 -3 12 0 14 4 29 10 34 15 5 4 -1 5 -13 2 -15 -4 -21 -1 -19 8 2 8 7 17 12
20 11 8 -2 31 -14 24 -5 -3 -7 -14 -5 -25 3 -13 -1 -17 -12 -13 -8 3 -11 9 -6
12 4 3 9 16 9 29 1 17 -3 22 -15 18 -13 -5 -12 -3 2 8 14 10 15 15 5 19 -10 4
-10 6 0 6 6 1 12 8 12 16 0 8 -6 15 -12 15 -9 0 -9 3 1 9 8 5 11 16 8 24 -4
11 -1 14 8 10 11 -4 12 -10 5 -24 -8 -15 -7 -17 5 -13 8 3 12 10 9 15 -3 5 1
9 8 9 9 0 9 3 -2 10 -8 5 -15 24 -15 44 -1 19 2 33 5 30 3 -3 5 -11 5 -17 0
-5 7 -12 15 -14 9 -3 11 -1 5 4 -6 4 -10 14 -9 21 1 6 2 20 3 30 1 10 4 13 9
6 4 -6 14 -3 26 10 14 14 15 18 4 14 -9 -4 -20 -2 -26 4 -6 6 -12 6 -17 -3 -6
-8 -4 -10 6 -5 8 4 6 1 -3 -7 -10 -8 -15 -17 -11 -20 3 -4 1 -7 -5 -7 -16 0
-15 11 3 36 8 12 11 25 7 29 -4 4 4 2 16 -4 13 -7 26 -10 30 -7 3 3 0 6 -6 6
-7 0 -11 6 -9 13 1 7 -7 11 -23 9 -19 -2 -22 0 -10 8 13 8 13 10 -2 10 -9 0
-20 4 -23 10 -4 7 3 7 20 0 14 -5 37 -12 50 -14 24 -4 24 -3 12 22 -16 35 -15
61 3 72 10 7 11 10 3 10 -7 0 -13 4 -13 10 0 5 8 7 18 4 15 -5 15 -5 0 5 -21
14 -13 52 10 45 14 -5 14 -4 0 6 -18 11 -26 36 -9 26 4 -3 7 10 5 30 -2 32 -1
34 14 22 15 -12 16 -11 3 5 -7 9 -10 17 -5 17 4 0 3 5 -4 12 -14 14 -16 42 -2
33 6 -3 10 -2 10 4 0 5 -5 13 -10 16 -8 5 -8 11 0 20 8 9 8 15 0 20 -10 6 -11
5 -15 -30 -1 -11 -3 -26 -3 -32 -1 -7 -7 -13 -13 -13 -7 0 -8 4 -2 13 5 6 9
26 8 44 -1 18 2 30 6 28 10 -7 32 23 25 34 -3 5 -1 12 4 14 6 3 5 4 -2 3 -7
-2 -13 -9 -13 -16 0 -7 -7 -15 -15 -17 -13 -4 -13 -3 0 6 12 9 12 11 1 11 -9
0 -6 7 9 20 13 11 20 20 15 20 -4 0 -2 6 4 14 10 12 8 17 -7 25 -11 6 -22 7
-26 4 -3 -3 -6 -2 -6 4 0 6 7 14 16 17 12 5 13 10 5 19 -12 16 25 53 49 49 11
-2 12 -1 2 6 -14 9 -6 45 8 37 5 -3 12 0 16 6 4 8 3 9 -4 5 -7 -4 -12 -1 -12
6 0 9 -3 9 -11 -2 -8 -12 -9 -10 -7 9 2 14 9 26 17 29 8 3 11 0 7 -6 -3 -6 -2
-13 3 -16 5 -4 8 2 7 11 -2 9 -8 19 -14 21 -9 3 -8 9 2 24 13 18 13 24 0 44
-9 12 -21 22 -27 20 -7 -1 -9 -1 -4 1 4 3 4 9 1 15 -4 5 5 2 20 -7 14 -10 26
-22 26 -29 0 -6 5 -4 10 4 6 9 6 18 -1 25 -6 6 -2 16 13 27 23 17 23 18 -9 6
-27 -10 -30 -15 -20 -28 11 -13 10 -13 -6 -1 -13 10 -14 17 -7 26 8 10 7 15
-2 18 -7 2 -1 2 14 0 25 -4 27 -2 23 27 -3 23 0 30 9 27 7 -3 13 1 13 8 0 10
-5 11 -17 5 -12 -6 -20 -3 -29 12 -7 11 -8 17 -2 13 6 -3 11 1 11 9 0 9 -5 16
-12 16 -6 0 -9 2 -6 5 8 8 39 -6 33 -15 -3 -4 2 -11 10 -14 13 -5 14 -2 4 16
-10 18 -9 20 5 15 10 -4 15 -3 11 3 -4 6 -13 9 -20 8 -8 -2 -14 2 -14 7 0 6 8
9 17 7 10 -2 13 1 7 5 -17 14 -17 36 0 29 10 -3 14 -2 10 5 -4 6 -14 8 -22 5
-8 -3 -11 -1 -8 4 3 6 2 10 -3 10 -5 0 -12 10 -15 23 -6 21 -6 21 13 -3 10
-14 22 -21 26 -17 4 4 1 7 -6 7 -9 0 -11 10 -7 35 4 24 2 33 -5 29 -6 -4 -8
-3 -4 4 3 5 3 12 -1 15 -5 2 -2 2 6 0 9 -2 11 2 7 13 -3 8 -6 18 -6 20 0 3 -6
2 -12 -2 -10 -6 -10 -5 -1 8 7 8 10 18 6 22 -4 4 0 4 10 0 9 -3 17 -10 17 -16
0 -5 -5 -6 -12 -2 -7 5 -8 3 -3 -5 5 -9 10 -10 18 -2 7 7 5 17 -8 31 -17 18
-17 22 -3 36 13 13 15 13 15 0 0 -8 -4 -13 -9 -10 -4 3 -8 0 -8 -6 0 -7 6 -10
13 -7 6 2 11 10 9 17 -2 8 4 10 15 6 13 -4 11 -1 -4 10 l-23 16 20 28 c13 19
17 31 10 35 -8 5 -7 11 1 21 13 16 6 30 -10 20 -5 -4 -8 -15 -6 -26 2 -12 0
-18 -6 -15 -5 4 -9 2 -9 -4 0 -5 6 -12 13 -14 9 -4 9 -6 0 -6 -7 -1 -17 8 -23
19 -6 11 -7 20 -3 19 20 -3 21 3 7 37 -8 20 -10 33 -5 29 6 -3 11 -13 11 -21
0 -8 5 -14 10 -14 6 0 10 12 10 26 0 17 -4 23 -12 18 -7 -4 -10 -4 -6 1 4 4 3
16 -3 26 -5 11 -6 19 -2 18 4 -1 16 1 26 5 21 10 23 31 2 23 -8 -4 -17 -1 -21
5 -4 6 -3 8 4 4 6 -3 13 -2 17 4 6 9 -8 14 -28 11 -5 -1 -6 3 -2 9 4 6 13 7
23 1 23 -12 52 -6 71 15 14 15 13 15 -11 -1 -25 -16 -28 -16 -28 -1 0 9 5 15
11 14 6 -2 14 4 16 12 4 13 3 13 -6 0 -9 -12 -11 -11 -11 8 0 20 -3 21 -21 12
-11 -7 -23 -9 -27 -6 -3 3 0 6 7 6 7 0 9 4 6 10 -3 6 1 7 10 4 9 -4 15 -3 13
2 -2 5 2 9 7 9 6 0 9 -3 8 -7 -1 -3 4 -9 12 -12 10 -3 12 0 8 11 -5 12 -3 14
7 8 8 -5 11 -4 6 3 -3 5 0 13 6 15 8 4 7 6 -4 6 -9 1 -18 -3 -20 -9 -1 -5 -14
0 -28 11 -22 18 -23 19 -2 9 15 -7 22 -7 22 0 0 5 -5 10 -11 10 -5 0 -7 5 -3
12 5 8 11 6 20 -6 8 -11 14 -13 19 -7 3 6 0 11 -7 11 -9 0 -9 3 2 10 11 8 6 9
-18 5 -28 -5 -31 -3 -20 8 7 8 19 12 27 9 9 -3 12 -1 8 5 -4 6 -1 14 5 16 10
4 10 6 1 6 -7 1 -13 8 -13 17 0 9 -5 12 -12 8 -9 -5 -9 -2 1 9 7 9 10 17 5 17
-5 1 2 10 15 20 13 11 18 20 12 20 -18 0 -26 -5 -23 -13 1 -5 -2 -6 -7 -3 -15
10 -4 47 18 62 30 21 15 78 -17 68 -14 -5 -14 -4 -2 4 8 6 18 8 24 5 5 -4 7 0
4 9 -4 8 -2 21 2 28 5 8 4 22 -1 31 -7 13 -5 21 8 28 17 9 17 11 -1 28 -13 12
-16 13 -11 3 7 -12 6 -13 -6 -2 -12 11 -12 14 1 22 9 6 17 5 22 -3 6 -9 8 -9
8 0 0 6 -5 15 -10 18 -6 4 -8 10 -5 15 3 5 1 11 -5 15 -5 3 -10 11 -10 16 0 6
4 8 9 4 5 -3 13 0 17 6 5 8 3 9 -5 5 -8 -5 -12 -3 -10 5 4 32 -1 43 -13 31 -7
-7 -16 -12 -21 -12 -4 0 5 12 20 26 25 23 26 24 4 14 -16 -8 -21 -9 -17 -1 4
6 2 11 -5 11 -10 0 -10 3 -1 12 16 16 15 45 0 52 -7 3 -2 3 12 0 19 -4 22 -3
10 5 -8 6 -11 11 -6 11 5 0 3 7 -4 15 -12 14 -10 15 15 11 15 -3 24 -2 21 1
-10 11 -56 15 -56 5 0 -4 5 -13 12 -20 9 -9 9 -12 -3 -12 -23 0 -30 10 -20 29
6 11 4 23 -5 35 -12 17 -12 23 2 44 9 13 11 21 5 18 -6 -4 -11 -3 -11 3 0 11
-39 9 -60 -4 -12 -7 -13 -6 -3 6 6 8 10 24 8 34 -2 11 -4 24 -4 28 -1 5 -6 5
-13 1 -7 -5 -8 -3 -3 6 6 10 11 9 21 -5 7 -10 11 -22 7 -28 -3 -6 -1 -7 5 -3
8 5 10 2 6 -8 -3 -9 -2 -16 3 -16 5 0 9 11 9 24 0 14 -4 22 -8 20 -7 -5 -12
10 -9 29 0 4 -5 7 -13 7 -8 0 -21 9 -29 21 -10 14 -16 16 -19 8 -3 -10 -6 -10
-12 -1 -4 7 -2 12 3 12 6 0 11 5 11 10 0 6 -3 9 -7 9 -23 -4 -31 4 -29 31 0
17 4 30 8 30 19 0 6 16 -14 17 -18 2 -20 0 -8 -7 13 -9 13 -10 0 -10 -13 0
-13 -1 0 -10 12 -7 10 -9 -6 -8 -12 1 -21 7 -19 13 5 23 18 45 24 41 4 -3 7 4
7 15 0 16 -3 15 -24 -9 -19 -22 -21 -23 -12 -4 9 18 8 22 -5 22 -8 0 -15 -6
-15 -14 0 -8 -4 -18 -10 -21 -6 -4 -7 1 -3 11 4 11 -1 22 -13 31 -10 8 -20 18
-20 23 -3 23 -5 24 -14 10 -8 -12 -10 -12 -10 -1 0 11 -3 11 -17 0 -16 -13
-17 -12 -4 4 11 14 11 17 0 18 -8 1 -18 1 -22 0 -5 -1 -6 3 -2 9 9 14 -8 13
-25 -2 -12 -11 -12 -10 0 5 18 24 -3 49 -22 28 -11 -12 -9 -13 7 -7 16 6 18 5
8 -5 -10 -10 -16 -10 -25 -1 -7 7 -9 12 -5 12 3 0 2 12 -3 26 -7 16 -7 23 0
19 6 -3 10 -13 10 -22 0 -9 3 -14 6 -10 9 9 -5 45 -21 51 -8 3 -17 0 -21 -6
-4 -7 -3 -8 4 -4 8 5 10 2 6 -8 -7 -19 -25 -21 -22 -3 2 6 -5 12 -14 12 -9 0
-20 3 -23 7 -4 3 5 5 19 4 14 -2 23 1 20 5 -3 5 0 9 5 9 6 0 11 5 11 12 0 9
-3 9 -12 0 -7 -7 -25 -12 -41 -12 -16 0 -26 -4 -22 -10 3 -6 -1 -7 -9 -4 -9 3
-16 11 -16 18 0 6 -13 18 -29 28 -23 13 -31 13 -34 3 -3 -7 1 -12 10 -11 9 0
18 -5 20 -11 3 -7 0 -13 -7 -13 -6 0 -8 5 -5 10 3 6 2 10 -4 10 -5 0 -12 -6
-14 -12 -4 -10 -6 -10 -6 0 -1 6 -6 12 -12 12 -5 0 -8 -4 -4 -9 3 -5 0 -13 -7
-17 -7 -4 -10 -4 -6 1 10 10 -11 37 -23 29 -5 -3 -6 3 -2 13 3 10 3 15 -2 11
-4 -4 -14 -3 -22 3 -15 13 -18 -2 -3 -17 8 -8 5 -15 -7 -24 -15 -12 -16 -12
-6 0 10 11 9 17 -4 32 -21 23 -40 24 -22 1 13 -16 12 -17 -3 -4 -10 7 -15 17
-13 22 3 4 -4 7 -15 6 -11 -1 -20 -7 -20 -14 0 -7 -4 -13 -10 -13 -5 0 -7 6
-4 13 3 8 -2 14 -11 14 -8 0 -15 -4 -15 -9 0 -5 -4 -6 -10 -3 -18 11 -11 24
10 20 11 -2 18 0 15 6 -4 5 4 13 17 18 16 7 18 10 6 10 -9 1 -23 -6 -31 -14
-8 -8 -18 -11 -21 -8 -11 12 -45 13 -51 3 -4 -7 -13 -7 -25 0 -16 9 -18 7 -15
-10 4 -20 -3 -24 -40 -20 -19 2 -19 1 -2 -12 18 -13 18 -14 0 -14 -10 -1 -27
-4 -38 -8 -13 -5 -11 -2 5 8 14 8 21 16 15 16 -5 0 -1 8 10 17 16 13 17 15 3
10 -11 -4 -18 -1 -18 6 0 8 -3 7 -9 -2 -5 -8 -7 -20 -5 -26 3 -7 -4 -15 -15
-18 -14 -3 -21 0 -21 8 0 25 -20 27 -47 5 -26 -20 -28 -21 -42 -3 -11 15 -13
15 -8 1 9 -26 -5 -30 -29 -7 -17 16 -24 18 -30 7 -4 -7 -4 -10 1 -6 13 12 34
-11 28 -30 -4 -15 -3 -15 6 -2 6 8 11 10 11 4 0 -18 -12 -24 -26 -13 -8 6 -11
16 -8 23 4 6 -5 0 -18 -14 -24 -24 -28 -47 -6 -34 7 4 8 2 4 -5 -6 -9 -11 -9
-22 0 -10 8 -11 15 -4 24 7 8 5 12 -5 12 -8 0 -12 -4 -9 -8 5 -9 -37 -6 -53 4
-6 4 -15 2 -19 -4 -4 -7 -3 -9 4 -5 6 3 13 2 16 -3 3 -5 -1 -11 -9 -15 -8 -3
-19 3 -24 12 -6 9 -11 12 -11 6 0 -5 6 -16 13 -23 10 -12 8 -13 -8 -7 -11 4
-17 4 -13 1 3 -4 -1 -15 -10 -25 -12 -14 -19 -17 -29 -8 -9 7 -13 7 -13 -1 0
-10 13 -15 33 -12 4 0 7 -4 7 -9 0 -6 -5 -10 -11 -10 -5 0 -7 -6 -3 -12 4 -7
-7 0 -25 17 -18 17 -30 23 -26 13 4 -9 1 -19 -5 -23 -8 -5 -8 -11 1 -21 8 -10
8 -14 0 -14 -6 0 -11 4 -11 10 0 5 -3 9 -7 9 -5 -1 -17 -1 -28 0 -17 1 -18 3
-5 11 11 7 11 10 2 10 -8 0 -10 5 -6 13 4 7 3 9 -2 4 -5 -5 -10 -13 -10 -18
-3 -20 -4 -21 -17 -11 -10 8 -13 6 -13 -7 0 -10 6 -18 13 -18 7 0 13 4 13 9 0
5 5 6 10 3 16 -10 11 -23 -7 -21 -10 2 -26 -8 -36 -21 -10 -13 -22 -21 -27
-18 -5 3 -11 -3 -13 -12 -4 -15 -5 -15 -6 -2 -1 18 -51 24 -51 7 0 -5 4 -7 8
-4 5 3 9 -1 9 -8 0 -7 -9 -12 -21 -11 -31 4 -32 4 -16 15 8 5 11 12 7 16 -4 4
-14 -2 -23 -14 -8 -12 -20 -22 -26 -22 -6 0 -6 6 2 15 7 9 10 18 6 22 -3 3 -6
1 -6 -5 0 -7 -5 -12 -11 -12 -5 0 -8 4 -5 8 3 5 -1 9 -9 9 -11 0 -12 -4 -4
-14 6 -7 8 -13 4 -13 -4 0 -4 -6 1 -13 5 -7 2 -5 -8 5 -22 24 -31 23 -17 -3 6
-13 7 -19 1 -15 -6 3 -12 3 -15 -1 -2 -5 -3 -3 -1 4 1 6 -4 19 -11 30 -13 17
-14 17 -10 -4 2 -13 -1 -26 -7 -29 -6 -4 -8 -3 -5 2 3 6 -3 16 -14 22 -17 11
-20 10 -17 -5 2 -12 -3 -18 -17 -17 -11 0 -23 -4 -26 -9 -3 -5 -9 -1 -12 8 -5
11 -3 14 6 9 6 -4 3 2 -7 14 -11 12 -26 22 -35 21 -12 0 -11 -2 3 -8 27 -11 9
-18 -47 -19 -31 0 -45 3 -41 10 5 7 2 8 -7 2 -26 -16 -54 -15 -68 3 -9 12 -12
13 -9 3 3 -8 -1 -21 -9 -29 -13 -12 -14 -11 -8 10 7 21 6 22 -9 10 -19 -16
-22 -1 -3 18 10 11 10 13 0 7 -8 -4 -13 -2 -13 6 0 9 -3 9 -10 -2 -5 -8 -7
-24 -5 -35 3 -11 2 -14 -1 -7 -3 6 -10 9 -16 6 -6 -4 -8 1 -4 14 5 13 1 22
-10 26 -14 5 -15 4 -5 -8 9 -11 7 -15 -10 -19 -18 -5 -20 -2 -14 21 5 23 5 25
-7 11 -15 -18 -53 -35 -43 -19 3 6 1 10 -4 10 -6 0 -11 -5 -11 -12 0 -6 -3 -8
-6 -5 -4 4 -1 14 6 22 11 13 15 13 21 3 7 -10 11 -10 21 1 8 9 9 12 1 7 -6 -3
-16 1 -21 9 -5 9 -15 17 -23 19 -8 1 -30 12 -49 24 -22 14 -38 18 -44 12 -15
-15 -30 -12 -17 4 10 12 5 14 -28 11 -26 -2 -39 1 -37 8 2 7 1 9 -1 5 -9 -16
-22 -7 -18 13 4 17 2 19 -10 9 -18 -15 -20 -24 -3 -14 7 5 8 3 3 -6 -4 -7 -2
-16 6 -21 10 -6 8 -8 -8 -7 -14 2 -19 7 -15 17 4 10 1 12 -7 6 -8 -5 -7 1 3
16 11 18 12 28 5 39 -9 13 -10 13 -6 0 2 -8 -2 -20 -9 -27 -14 -14 -25 -17
-21 -5 1 4 0 7 -3 7 -3 0 -17 8 -32 17 -19 13 -28 14 -37 5 -10 -9 -12 -9 -9
3 2 8 -3 14 -10 12 -8 -1 -11 2 -7 8 3 5 2 10 -4 10 -5 0 -12 -6 -14 -12 -3
-8 -6 -6 -6 5 -1 9 -7 17 -13 17 -9 0 -8 4 2 10 8 5 12 10 7 10 -11 0 -51 -23
-59 -35 -5 -6 -8 -4 -8 5 0 12 -2 12 -9 2 -6 -10 -11 -5 -21 17 -7 17 -16 31
-21 31 -21 0 -25 2 -36 23 -11 21 -11 21 -10 -5 1 -14 5 -24 9 -22 4 2 9 0 13
-6 4 -6 11 -7 17 -4 7 5 8 2 3 -6 -5 -9 -4 -11 3 -6 7 4 12 2 12 -3 0 -14 -17
-14 -25 -1 -5 8 -12 7 -23 -2 -10 -7 -14 -8 -10 -4 8 10 -9 36 -23 36 -5 0 -9
-8 -9 -17 0 -15 -1 -15 -14 2 -7 10 -20 16 -28 13 -10 -4 -14 0 -13 13 1 10 4
22 8 25 10 11 8 24 -4 24 -5 0 -8 -4 -4 -9z m2045 -36 c-6 -7 -5 -16 2 -23 18
-18 1 -14 -21 5 -23 19 -19 32 9 30 13 -1 16 -5 10 -12z m-47 -9 c6 -14 -1
-26 -14 -26 -4 0 -7 9 -6 20 1 23 12 26 20 6z m-153 -19 c0 -7 -9 -18 -20 -25
-12 -7 -18 -17 -14 -23 3 -6 -5 -4 -18 5 -14 9 -28 14 -31 11 -4 -3 -5 -2 -2
2 9 12 35 12 35 0 0 -11 15 0 15 11 1 25 35 44 35 19z m125 -17 c3 -5 1 -10
-4 -10 -6 0 -11 5 -11 10 0 6 2 10 4 10 3 0 8 -4 11 -10z m180 1 c3 -5 2 -12
-3 -15 -5 -3 -9 1 -9 9 0 17 3 19 12 6z m-2225 -16 c-7 -8 -17 -15 -23 -15 -6
0 -2 7 9 15 25 19 30 19 14 0z m2088 -10 c-3 -3 -9 2 -12 12 -6 14 -5 15 5 6
7 -7 10 -15 7 -18z m-1898 5 c0 -5 -5 -10 -11 -10 -5 0 -7 5 -4 10 3 6 8 10
11 10 2 0 4 -4 4 -10z m123 -4 c4 -10 0 -12 -15 -8 -15 4 -17 7 -6 13 17 11
15 11 21 -5z m1617 10 c0 -2 -7 -7 -16 -10 -8 -3 -12 -2 -9 4 6 10 25 14 25 6z
m-80 -20 c0 -3 -4 -8 -10 -11 -5 -3 -10 -1 -10 4 0 6 5 11 10 11 6 0 10 -2 10
-4z m-129 -23 c11 -15 11 -16 -1 -5 -19 16 -30 15 -30 -3 0 -8 -4 -15 -10 -15
-5 0 -7 -8 -3 -17 5 -15 3 -14 -10 2 -15 20 -13 40 3 30 4 -3 10 2 14 10 7 20
21 19 37 -2z m-70 -40 c12 -16 12 -17 -2 -6 -22 17 -33 3 -11 -14 15 -13 15
-13 -6 -3 -19 9 -21 14 -11 26 14 18 14 18 30 -3z m-2110 -30 c13 -16 12 -17
-3 -4 -10 7 -18 15 -18 17 0 8 8 3 21 -13z m1016 -6 c0 -8 -6 -14 -14 -14 -17
0 -17 14 0 20 6 3 12 6 13 6 0 1 1 -5 1 -12z m30 -2 c0 -8 -4 -15 -9 -15 -4 0
-8 7 -8 15 0 8 4 15 8 15 5 0 9 -7 9 -15z m63 -13 c8 -2 22 -10 31 -18 9 -8
18 -11 21 -8 3 3 9 1 12 -5 4 -6 -9 -9 -33 -8 -22 1 -38 4 -36 6 2 2 -3 10
-11 19 -14 13 -17 13 -25 1 -5 -8 -9 -9 -9 -3 0 14 23 35 29 26 3 -4 13 -8 21
-10z m920 3 c11 -13 10 -14 -4 -9 -9 3 -16 10 -16 15 0 13 6 11 20 -6z m-2114
-27 c5 -7 3 -8 -6 -3 -9 5 -10 1 -6 -16 6 -20 5 -21 -4 -6 -6 9 -8 22 -5 27 8
13 12 13 21 -2z m-40 -17 c-4 -5 0 -12 6 -14 8 -3 6 -6 -4 -6 -20 -1 -24 -16
-8 -24 6 -3 5 -4 -2 -3 -16 3 -18 38 -3 48 14 10 17 10 11 -1z m2068 -13 c-3
-5 -10 -6 -15 -3 -5 4 -9 1 -9 -6 0 -7 -3 -10 -6 -6 -9 9 3 24 20 24 8 0 13
-4 10 -9z m-801 -13 c-3 -9 -8 -14 -10 -11 -3 3 -2 9 2 15 9 16 15 13 8 -4z
m-1301 -47 c-9 -9 -12 -9 -12 1 0 7 -5 9 -12 5 -9 -5 -8 -2 1 10 10 12 17 14
25 6 7 -7 6 -14 -2 -22z m1696 2 c-15 -23 -17 -23 -38 -10 -10 7 -11 10 -2 11
27 3 31 4 38 12 13 13 14 7 2 -13z m-1054 -5 c-3 -6 2 -12 11 -12 8 0 15 6 15
14 0 7 4 13 10 13 5 0 6 -7 3 -17 -5 -11 -3 -14 6 -8 8 4 17 2 22 -6 6 -9 12
-10 17 -4 15 20 29 14 24 -10 -2 -14 -8 -22 -13 -19 -5 3 -7 9 -5 13 3 3 -4 7
-14 7 -15 0 -14 -4 9 -26 25 -25 56 -37 44 -17 -3 5 0 7 8 5 8 -3 13 -11 11
-18 -2 -11 0 -11 12 -1 9 7 17 8 20 2 3 -5 0 -12 -6 -14 -9 -4 -10 -6 -1 -6 6
-1 15 4 18 9 3 6 13 10 22 10 13 0 14 -2 2 -17 -13 -16 -12 -17 4 -4 12 9 14
17 7 26 -7 8 -5 12 5 12 8 0 12 -4 9 -9 -3 -4 0 -8 5 -8 6 0 11 5 11 12 0 6 3
8 6 5 4 -4 1 -14 -7 -23 -12 -15 -11 -16 8 -10 17 6 25 1 36 -20 12 -22 15
-24 20 -10 4 10 3 15 -3 11 -6 -3 -10 -2 -10 4 0 5 9 9 19 8 12 -1 17 -5 12
-12 -11 -13 -10 -45 1 -45 5 0 6 -6 2 -12 -6 -10 -4 -10 8 0 13 11 19 8 37
-15 12 -15 20 -22 19 -14 -2 7 7 15 20 17 13 2 21 0 18 -5 -4 -5 0 -11 6 -14
18 -6 49 4 43 13 -3 5 -1 12 5 15 6 4 9 1 8 -6 -2 -6 3 -14 11 -17 8 -2 11 0
8 5 -3 5 0 10 6 10 7 0 14 -10 15 -21 0 -11 -2 -16 -6 -11 -14 20 -62 6 -62
-18 0 -7 5 -4 11 5 7 13 15 15 33 8 15 -5 27 -5 34 2 6 6 12 6 17 -3 6 -8 4
-10 -6 -4 -11 6 -12 5 -2 -5 11 -12 16 -11 29 6 14 18 15 18 3 -5 -10 -21 -9
-23 6 -17 13 5 16 2 11 -9 -3 -9 -2 -13 4 -10 10 6 13 -5 11 -35 0 -10 1 -11
5 -2 3 6 11 9 17 5 7 -4 6 1 -2 10 -7 9 -11 17 -7 17 4 0 -1 12 -10 28 -11 18
-11 21 -2 10 8 -10 18 -15 21 -11 4 3 5 -4 2 -15 -2 -12 3 -23 11 -26 9 -3 12
-12 9 -18 -4 -7 5 1 20 17 l26 30 -10 -27 c-12 -31 1 -47 23 -29 7 6 17 7 21
3 5 -4 5 -1 1 6 -4 7 -11 10 -16 7 -5 -3 -11 -1 -14 4 -4 5 2 8 11 6 10 -2 21
-4 26 -4 4 -1 7 -8 7 -16 0 -14 10 -18 27 -12 5 1 7 5 6 10 -2 4 4 7 12 7 9 0
12 -6 9 -17 -5 -15 -4 -15 4 -3 7 9 7 18 1 26 -11 14 43 12 64 -2 19 -14 103
-9 99 5 -1 7 2 10 8 6 8 -5 8 -11 1 -19 -6 -7 -7 -17 -3 -21 4 -5 1 -4 -7 0
-26 15 -70 13 -64 -2 3 -8 8 -11 11 -9 3 3 12 0 21 -7 14 -11 14 -10 2 6 -15
19 -1 23 18 5 10 -11 16 -8 29 10 12 15 24 21 35 16 9 -3 14 -11 10 -17 -3 -6
-1 -7 5 -3 7 4 12 15 12 24 0 13 2 13 14 -4 14 -18 15 -18 21 -1 5 11 14 16
25 12 10 -3 21 -1 25 5 5 8 11 8 21 -1 11 -9 14 -8 15 2 0 8 6 1 13 -15 12
-27 13 -27 19 -7 3 12 0 21 -6 21 -6 0 -8 3 -5 6 4 3 16 0 29 -6 19 -11 21
-10 16 4 -4 11 -3 15 4 11 6 -4 8 -13 5 -21 -3 -7 0 -16 6 -20 7 -5 8 -3 4 5
-11 18 26 10 42 -9 11 -13 11 -11 2 8 -6 12 -15 20 -20 17 -5 -3 -11 -1 -15 4
-6 10 27 7 45 -4 5 -3 21 2 35 11 24 16 25 16 19 -2 -4 -11 -4 -16 1 -12 4 4
13 1 19 -8 10 -13 12 -13 12 5 0 11 -5 17 -10 14 -5 -3 -6 -1 -2 5 10 17 36 3
29 -16 -4 -13 -3 -14 5 -4 13 19 16 19 38 2 18 -14 18 -14 1 6 -9 11 -14 25
-10 29 5 5 1 4 -9 -3 -20 -16 -34 1 -14 17 10 8 16 9 21 1 3 -6 11 -8 16 -5 5
3 6 -1 3 -9 -3 -9 -1 -16 6 -16 6 0 9 4 6 9 -3 5 1 14 10 21 13 12 14 10 10
-15 -3 -15 -2 -25 1 -21 4 4 8 12 9 19 1 7 5 21 9 32 4 12 3 15 -2 9 -4 -6
-16 -10 -26 -8 -9 1 -14 -2 -11 -8 4 -6 -2 -5 -15 1 -27 15 -27 18 2 16 29 -3
59 13 51 27 -4 7 -3 8 5 4 6 -4 9 -12 6 -17 -4 -5 -1 -9 5 -9 7 0 10 -7 6 -15
-8 -22 2 -18 15 6 6 12 7 19 2 16 -5 -3 -9 4 -10 16 0 12 1 16 4 10 7 -20 23
-15 17 5 -5 16 -5 16 6 -1 10 -16 13 -16 33 -2 19 13 24 13 46 -2 24 -15 25
-15 12 0 -8 10 -9 17 -3 17 6 0 16 -8 21 -17 8 -15 11 -15 12 -3 1 8 1 18 0
23 0 4 6 7 14 7 8 0 15 5 15 10 0 14 -23 8 -36 -9 -9 -11 -12 -12 -19 -1 -5 9
-4 11 3 6 7 -4 12 -3 12 3 0 5 -6 12 -12 15 -7 3 -1 3 14 1 26 -3 45 16 33 36
-4 5 2 6 11 2 11 -4 15 -3 10 5 -3 6 -2 13 3 16 13 8 8 -19 -7 -37 -10 -11 -9
-17 5 -28 16 -13 17 -12 4 4 -15 20 -2 23 18 5 11 -11 12 -10 6 1 -6 11 -4 13
8 8 11 -4 14 -2 10 9 -4 12 -8 12 -22 2 -13 -10 -14 -10 -4 1 6 7 9 21 5 30
-3 9 7 3 22 -14 16 -16 23 -22 16 -12 -7 9 -9 17 -5 17 4 0 1 8 -6 18 -11 14
-11 15 1 5 10 -9 17 -10 27 -2 7 7 13 8 13 4 0 -4 6 -3 13 3 10 8 13 6 14 -11
2 -15 0 -18 -6 -8 -6 9 -11 10 -15 2 -4 -6 -12 -9 -17 -6 -5 4 -9 2 -9 -3 0
-5 23 -9 51 -8 28 0 46 2 40 4 -6 2 -9 8 -6 12 3 5 12 7 19 4 8 -3 17 0 21 6
5 8 11 7 23 -2 12 -10 12 -7 -3 15 -18 29 -14 50 7 29 7 -7 16 -12 22 -12 6 0
5 5 -2 12 -7 7 -12 17 -12 23 0 5 5 2 11 -8 8 -13 15 -15 27 -8 13 8 22 3 40
-17 13 -15 21 -22 18 -16 -3 7 1 15 9 18 9 3 18 -1 22 -10 5 -15 7 -15 15 1 6
9 7 19 4 22 -3 4 -6 1 -6 -7 0 -9 -4 -9 -12 -2 -19 15 -30 15 -39 0 -7 -10 -9
-9 -9 5 0 11 5 17 13 14 6 -2 23 5 37 17 l25 21 -19 -22 c-20 -24 -9 -32 12
-11 7 7 12 8 12 4 0 -5 8 -2 18 5 9 7 14 9 10 5 -9 -10 9 -36 24 -36 6 0 5 6
-2 15 -6 8 -10 20 -7 27 3 8 6 6 6 -5 1 -11 6 -15 13 -11 7 5 8 3 3 -6 -5 -8
-3 -11 6 -8 8 3 13 11 11 17 -1 6 2 11 8 11 12 0 13 -13 3 -24 -5 -4 -8 -13
-8 -19 0 -5 -7 -12 -15 -14 -13 -4 -13 -3 0 7 13 10 12 11 -4 6 -10 -4 -24 -2
-30 3 -7 5 -18 1 -31 -12 l-20 -20 23 12 c16 9 28 9 42 1 11 -6 26 -8 32 -4 8
5 9 1 5 -12 -6 -16 -5 -17 5 -4 17 19 53 27 42 8 -4 -7 -9 -21 -9 -32 -2 -18
-1 -18 11 -1 7 10 11 23 7 28 -4 6 0 8 8 5 50 -21 49 -21 43 -2 -5 15 -4 16 4
4 6 -8 8 -18 5 -23 -3 -5 0 -7 8 -5 8 3 13 11 11 17 -1 7 2 10 8 6 7 -4 7 -12
0 -25 -13 -25 -12 -40 1 -17 5 9 14 17 19 17 6 0 10 -8 10 -17 0 -15 -2 -16
-10 -3 -7 12 -9 10 -8 -6 2 -18 5 -20 19 -11 10 6 15 15 12 21 -4 5 -1 6 6 2
9 -6 8 -13 -6 -29 -10 -11 -12 -17 -6 -13 7 4 22 9 34 11 17 4 19 2 9 -10 -15
-18 -24 -20 -14 -2 4 6 3 8 -2 4 -4 -4 -9 -24 -9 -42 0 -34 0 -34 16 -14 14
19 17 19 29 5 8 -10 21 -14 34 -11 17 5 18 4 6 -4 -13 -10 -13 -11 0 -12 8 -1
18 -1 22 0 4 0 12 -9 18 -22 9 -19 9 -20 -2 -6 -11 13 -17 13 -38 2 -18 -9
-20 -13 -7 -13 9 0 17 -3 18 -7 3 -30 9 -48 19 -51 5 -2 7 -9 4 -14 -4 -7 -2
-8 5 -4 9 6 9 11 0 22 -8 10 -8 14 0 14 6 0 11 -5 11 -11 0 -5 5 -7 11 -3 7 4
6 -2 -1 -17 -13 -24 -13 -24 9 -5 11 11 22 16 22 13 1 -4 2 -10 3 -14 1 -5 5
-14 10 -22 6 -9 5 -12 -1 -8 -7 4 -10 -3 -9 -18 0 -15 6 -23 13 -21 7 3 15 0
19 -6 4 -7 3 -8 -4 -4 -7 4 -12 1 -12 -8 0 -8 6 -17 13 -19 9 -4 9 -6 -1 -6
-7 -1 -15 6 -18 14 -4 8 -10 15 -16 15 -5 0 -7 -4 -4 -9 4 -5 0 -12 -6 -15 -7
-3 -4 -4 6 -3 24 3 33 -47 14 -71 -10 -12 -10 -14 0 -8 8 5 12 0 12 -15 0 -18
-2 -20 -17 -9 -10 7 -6 1 10 -13 26 -26 37 -44 17 -32 -13 8 -13 -15 0 -35 8
-12 10 -12 11 5 0 11 3 14 6 7 3 -7 1 -18 -5 -25 -5 -7 -8 -20 -7 -30 2 -9 -1
-15 -5 -12 -5 3 -7 14 -5 24 2 10 -1 24 -7 32 -8 11 -9 10 -4 -3 3 -11 0 -18
-7 -19 -8 0 -8 -2 1 -6 10 -4 9 -10 -5 -26 -16 -19 -16 -20 0 -8 14 11 17 11
17 -2 0 -9 -4 -19 -10 -22 -13 -8 -13 -25 1 -25 5 0 7 5 3 12 -5 7 -3 8 6 3 8
-5 11 -4 6 3 -3 6 -3 13 2 16 13 8 11 -28 -2 -36 -8 -6 -6 -11 4 -18 12 -8 12
-10 1 -10 -9 0 -12 -8 -9 -25 3 -14 1 -28 -4 -31 -5 -3 -1 -18 8 -32 13 -21
14 -24 2 -15 -8 7 -19 9 -23 5 -5 -4 -5 -2 -2 4 3 6 0 11 -7 11 -14 0 -15 -25
-2 -45 10 -16 4 -23 -20 -26 -10 -2 -20 -9 -22 -17 -2 -9 -1 -10 5 -3 4 6 18
10 30 9 13 -1 21 1 18 3 -7 7 15 32 29 32 6 0 5 -4 -3 -9 -18 -11 -24 -41 -8
-41 5 0 7 -3 4 -6 -4 -4 -12 -2 -19 4 -9 7 -19 6 -33 -5 -18 -14 -18 -15 -2
-9 11 4 28 -1 43 -13 22 -17 23 -20 7 -32 -12 -10 -14 -10 -9 -1 4 6 4 17 0
24 -11 17 -23 -23 -13 -43 9 -18 0 -33 -21 -37 -10 -1 -9 2 4 13 11 8 15 15 9
15 -12 0 -11 37 1 61 4 8 0 5 -8 -5 -9 -11 -16 -15 -16 -9 0 6 -7 13 -15 17
-12 4 -12 1 2 -21 21 -31 25 -53 11 -53 -6 0 -7 -8 -3 -17 4 -10 8 -23 8 -30
0 -7 4 -10 9 -7 5 3 6 10 3 15 -4 5 -2 9 3 9 6 0 12 -7 16 -15 3 -8 0 -14 -7
-12 -7 1 -11 -4 -9 -11 2 -10 -2 -10 -17 -2 -27 14 -30 13 -28 -9 0 -11 5 -17
9 -15 5 3 5 10 2 16 -4 7 -2 8 4 4 16 -10 4 -33 -21 -40 -18 -5 -20 -8 -7 -16
8 -5 11 -10 7 -10 -4 0 -2 -10 4 -22 12 -22 11 -22 -8 -5 -11 9 -23 17 -28 17
-5 0 -2 -6 7 -12 24 -20 28 -45 11 -60 -14 -11 -15 -10 -9 12 6 21 5 22 -4 7
-9 -14 -9 -22 0 -32 13 -16 34 -10 25 6 -4 5 2 6 11 2 11 -4 13 -8 6 -11 -7
-2 -12 -10 -12 -18 0 -9 -4 -12 -10 -9 -6 4 -7 -1 -3 -11 4 -11 2 -15 -4 -11
-6 4 -17 -1 -24 -11 -13 -15 -12 -16 4 -3 14 11 17 11 17 0 1 -10 4 -8 11 4 5
9 15 17 22 17 8 0 7 -3 -2 -9 -8 -5 -10 -14 -6 -21 5 -9 4 -11 -3 -6 -14 9
-15 -3 -2 -24 6 -9 5 -19 -2 -28 -9 -10 -8 -16 3 -24 11 -8 10 -9 -4 -4 -17 5
-18 2 -13 -36 4 -28 3 -38 -3 -28 -6 8 -7 18 -4 24 3 5 1 6 -5 2 -5 -3 -12 -1
-14 6 -3 7 -7 5 -11 -6 -4 -10 -3 -15 3 -11 6 3 13 -2 17 -12 4 -10 11 -21 17
-25 6 -4 1 -6 -12 -5 -16 1 -21 6 -17 17 5 11 3 12 -6 3 -12 -12 -3 -37 11
-28 11 7 33 -22 25 -35 -3 -6 -11 -8 -16 -5 -5 4 -9 1 -9 -6 0 -9 -3 -9 -14 0
-11 9 -16 9 -22 0 -4 -7 -3 -9 3 -6 12 8 36 -17 39 -42 2 -14 1 -13 -11 2 -8
12 -15 14 -20 8 -3 -6 -3 -11 2 -11 4 0 19 -9 33 -20 20 -16 21 -19 5 -13 -18
6 -19 5 -5 -13 14 -18 14 -18 -2 -5 -10 7 -15 18 -11 24 3 6 1 7 -5 3 -15 -9
7 -58 22 -49 6 3 7 2 3 -2 -12 -14 -36 -14 -31 -1 7 17 -22 41 -31 26 -4 -6
-1 -9 6 -8 6 2 14 -3 17 -11 3 -8 0 -11 -7 -7 -6 4 -11 2 -11 -3 0 -6 4 -11 8
-11 5 0 9 -7 9 -15 0 -8 -4 -15 -9 -15 -4 0 -8 5 -8 10 0 6 -4 10 -10 10 -19
0 -10 -17 15 -28 25 -12 34 -32 14 -32 -5 0 -7 6 -3 13 4 6 4 9 -1 5 -4 -4
-15 -2 -24 4 -13 10 -14 10 -3 -2 6 -8 12 -18 12 -23 0 -4 -6 -5 -12 -1 -9 5
-9 2 1 -9 7 -9 19 -17 25 -17 6 0 4 5 -4 11 -13 9 -12 10 2 5 10 -3 20 -1 23
4 4 6 11 10 18 10 6 0 1 -7 -12 -16 -18 -13 -20 -18 -10 -25 10 -6 6 -11 -14
-18 -31 -12 -32 -15 -13 -34 12 -11 11 -15 -3 -24 -14 -9 -18 -8 -18 3 0 7 5
10 11 7 6 -3 8 -3 4 1 -8 9 -18 9 -19 -1 -1 -16 -32 -42 -43 -36 -6 3 -5 0 3
-8 11 -11 14 -11 18 -1 4 10 9 8 20 -5 8 -10 11 -12 7 -4 -3 7 -1 17 6 21 16
10 40 2 40 -12 0 -6 -6 -6 -14 1 -10 8 -16 9 -21 1 -3 -5 0 -10 7 -10 9 0 9
-3 -2 -10 -8 -5 -11 -10 -6 -10 5 0 2 -7 -5 -16 -12 -15 -11 -16 11 -10 l25 7
-23 -14 c-12 -7 -20 -16 -17 -19 4 -3 2 -9 -4 -12 -5 -4 -13 -1 -17 5 -4 7 -3
9 3 6 5 -3 10 0 10 7 0 7 -6 13 -14 13 -7 0 -11 -3 -8 -5 3 -3 -1 -12 -7 -21
-7 -9 -8 -13 -4 -9 13 11 46 -31 39 -48 -4 -11 -9 -12 -18 -4 -11 9 -12 6 -7
-12 5 -21 4 -22 -14 -8 -17 14 -18 13 -7 -1 7 -9 9 -20 5 -25 -4 -5 4 0 17 11
14 11 21 14 17 8 -4 -7 -2 -13 3 -13 6 0 11 -5 11 -11 0 -8 -6 -7 -17 2 -15
12 -16 12 -10 -4 4 -10 3 -16 -2 -13 -4 3 -13 -6 -20 -20 -8 -19 -8 -23 0 -18
7 4 10 1 7 -7 -3 -8 -10 -14 -15 -14 -6 0 -14 -3 -18 -7 -4 -3 1 -5 12 -4 17
3 42 -19 43 -38 0 -6 -6 -2 -13 9 -11 14 -16 15 -22 5 -5 -9 -4 -11 3 -6 7 4
12 1 12 -9 0 -9 -4 -14 -8 -11 -10 6 -10 -40 0 -49 3 -3 5 3 4 14 0 11 2 21 7
21 28 1 31 -1 17 -10 -8 -5 -15 -21 -15 -36 -1 -15 -7 -30 -14 -32 -9 -3 -11
2 -6 17 3 11 3 21 -2 21 -12 0 -14 -38 -2 -45 15 -10 10 -23 -12 -30 -12 -4
-18 -10 -13 -14 5 -3 10 -14 12 -25 2 -13 -1 -16 -10 -10 -9 5 -9 2 2 -10 13
-17 12 -21 -15 -44 -17 -14 -22 -23 -13 -19 11 4 21 0 28 -11 8 -14 9 -12 6
11 -3 19 -1 25 7 21 7 -4 9 -4 5 1 -9 10 10 35 26 35 6 0 3 -5 -7 -11 -9 -6
-15 -14 -12 -19 3 -5 1 -11 -5 -15 -6 -4 -7 -11 -4 -17 4 -6 10 -5 15 3 6 10
9 10 9 2 0 -17 -37 -36 -45 -23 -3 5 -12 10 -18 10 -8 0 -8 -3 1 -9 18 -11 11
-33 -13 -48 -11 -7 -14 -12 -7 -13 6 0 12 -8 12 -17 0 -15 2 -16 10 -3 6 9 5
17 -3 23 -8 6 -6 7 6 3 10 -3 16 -2 14 2 -3 4 1 12 8 19 10 10 15 9 20 -5 3
-9 3 -13 -1 -9 -10 10 -44 -43 -37 -58 2 -7 -1 -16 -7 -20 -8 -5 -7 -11 2 -23
10 -13 10 -14 0 -8 -9 6 -11 1 -8 -18 3 -14 -2 -30 -10 -37 -20 -17 -17 -34 4
-18 14 11 15 11 5 -1 -7 -8 -13 -18 -13 -23 0 -4 6 -5 13 0 18 11 38 13 31 2
-3 -5 -9 -7 -14 -4 -11 7 -32 -20 -22 -30 4 -5 1 -5 -6 -1 -7 4 -10 11 -8 14
2 4 -5 19 -16 32 l-20 25 16 -27 c15 -26 15 -28 -4 -38 -16 -9 -18 -15 -10
-30 5 -10 7 -20 2 -23 -4 -2 -2 -3 5 -1 19 4 23 -8 7 -23 -8 -8 -11 -20 -7
-26 4 -7 0 -8 -13 -4 -18 7 -18 6 -1 -7 14 -11 15 -15 5 -20 -7 -3 -2 -3 12 0
14 4 22 3 18 -1 -4 -4 -3 -16 3 -26 7 -15 6 -17 -6 -13 -8 4 -15 1 -15 -5 0
-6 6 -11 13 -12 9 0 9 -2 -1 -6 -10 -4 -10 -8 -1 -19 10 -12 9 -13 -4 -8 -11
4 -15 0 -13 -13 4 -24 -15 -41 -44 -39 -13 0 -25 -6 -27 -14 -4 -13 -3 -13 6
0 8 12 10 11 8 -7 0 -12 -5 -19 -9 -17 -4 3 -8 2 -8 -3 0 -4 -13 -17 -28 -28
-21 -15 -24 -15 -13 -2 15 19 15 19 -17 22 -17 2 -20 -1 -13 -8 15 -15 14 -24
-5 -31 -8 -3 -12 -2 -9 4 3 6 0 19 -7 29 -14 19 -14 19 -26 1 -10 -16 -9 -18
9 -15 12 2 17 0 13 -6 -3 -6 -15 -9 -25 -6 -11 3 -23 -2 -29 -11 -8 -14 -9
-14 -10 -2 0 13 -2 13 -11 0 -9 -12 -10 -12 -5 4 5 13 2 17 -8 13 -8 -3 -17
-3 -21 1 -6 7 -10 8 -36 11 -6 0 -9 8 -6 16 4 8 2 17 -3 20 -6 4 -10 -2 -10
-11 0 -10 -3 -15 -6 -11 -4 3 -4 14 0 23 5 13 9 14 21 4 8 -7 15 -11 16 -9 8
39 7 40 -9 27 -13 -11 -15 -11 -9 5 3 9 2 17 -3 17 -6 0 -10 -5 -10 -11 0 -15
-30 -43 -31 -30 -1 6 -2 17 -3 24 0 6 -9 12 -18 12 -9 0 -20 3 -23 7 -4 3 5 5
19 4 23 -3 44 19 31 32 -3 3 -5 0 -5 -6 0 -7 -7 -12 -15 -12 -8 0 -15 6 -15
13 0 8 -4 7 -11 -3 -9 -13 -10 -13 -8 0 3 31 -1 42 -14 37 -8 -3 -14 1 -14 8
0 7 6 11 14 8 7 -3 13 -2 13 2 0 14 -33 38 -57 41 -14 1 -30 7 -35 12 -6 6 2
8 21 6 17 -2 31 1 31 6 0 6 -5 9 -12 7 -7 -1 -12 3 -13 8 0 6 -4 15 -8 22 -4
6 -1 14 5 17 8 3 7 5 -2 3 -9 -1 -15 3 -15 8 0 6 3 9 7 8 5 -2 8 2 8 7 0 11
-30 14 -31 3 0 -5 -2 -16 -4 -26 -2 -10 1 -14 7 -11 7 5 8 2 3 -6 -6 -9 -4
-11 5 -5 9 6 11 4 5 -5 -5 -8 -4 -11 2 -7 5 3 10 0 10 -8 0 -8 -5 -11 -11 -7
-6 4 -15 7 -21 7 -5 0 -10 9 -10 20 0 11 -6 23 -15 27 -12 5 -11 7 4 7 18 1
18 2 2 20 -10 11 -15 24 -12 30 4 5 1 13 -5 17 -8 4 -9 3 -5 -4 4 -7 2 -12 -4
-12 -6 0 -9 -4 -6 -8 2 -4 -5 -9 -16 -9 -19 -2 -20 -1 -2 11 16 12 16 16 4 31
-12 14 -12 18 1 26 10 6 10 9 2 9 -7 0 -13 5 -13 11 0 5 5 7 11 3 8 -4 8 0 0
15 -14 25 -23 28 -14 4 6 -15 4 -16 -9 -5 -17 13 -17 48 -1 45 5 -1 10 5 10
13 0 11 -4 11 -20 -3 -19 -17 -20 -17 -14 -1 4 12 2 15 -9 11 -13 -5 -13 -8 1
-23 13 -14 13 -17 0 -17 -8 0 -12 4 -10 8 3 3 -2 12 -10 19 -19 16 -19 34 0
27 8 -4 17 -1 21 5 4 6 3 8 -4 4 -5 -3 -12 0 -15 6 -3 10 -7 10 -20 -1 -19
-15 -23 -1 -5 17 7 7 8 13 3 13 -6 1 -20 3 -33 4 -12 1 -26 6 -30 10 -4 5 1 5
11 2 11 -4 17 -1 17 8 0 9 -8 12 -20 10 -12 -2 -18 0 -15 6 4 5 11 7 16 4 5
-4 9 -1 9 4 0 6 -6 11 -12 11 -8 0 -5 7 6 15 23 18 14 20 -16 4 -13 -7 -18 -7
-14 -1 3 6 2 13 -4 17 -5 3 -10 0 -10 -7 0 -9 -3 -9 -10 2 -13 20 -12 30 1 30
5 0 7 -6 3 -12 -4 -7 -4 -10 1 -6 4 4 14 3 21 -3 8 -7 14 -6 20 2 4 8 3 9 -4
5 -7 -4 -12 -3 -12 2 0 17 -32 23 -49 10 -9 -7 -13 -8 -9 -4 4 5 3 15 -3 22
-7 8 -6 14 2 20 8 4 9 3 5 -4 -4 -7 -3 -12 2 -12 12 0 23 26 15 34 -4 3 -13 1
-20 -6 -11 -9 -16 -9 -23 2 -5 8 -6 18 -3 24 4 5 -2 7 -13 3 -18 -7 -18 -6 -2
6 10 8 14 18 10 22 -4 5 1 5 11 2 9 -4 17 -2 17 3 0 15 -21 12 -42 -7 -17 -16
-17 -15 -1 17 12 24 13 35 5 38 -7 2 -10 8 -7 12 3 5 -4 7 -15 5 -15 -3 -24 3
-30 20 -5 14 -12 25 -15 25 -2 0 -1 -10 4 -22 5 -13 5 -32 0 -43 l-8 -20 -1
20 c-2 11 -2 24 -1 29 1 4 -2 13 -7 20 -5 6 -8 19 -7 29 2 9 -1 15 -5 12 -5
-3 -18 9 -30 25 -17 24 -25 28 -35 20 -9 -8 -15 -8 -20 0 -3 5 -1 10 6 10 7 0
10 2 7 5 -3 3 -17 1 -31 -4 -19 -8 -27 -7 -31 4 -3 10 0 12 12 9 14 -5 15 -4
2 4 -10 8 -18 8 -27 0 -7 -6 -13 -7 -13 -2 0 5 -5 2 -11 -6 -9 -13 -10 -12 -5
3 5 15 2 17 -14 12 -11 -4 -20 -2 -20 4 0 5 -9 8 -20 6 -11 -2 -18 0 -15 5 3
5 0 12 -6 15 -5 4 -8 13 -6 19 4 9 -3 11 -19 8 -13 -2 -24 -9 -24 -14 0 -5 5
-6 11 -2 11 7 29 -12 29 -31 -1 -5 -5 -2 -11 7 -8 15 -13 16 -29 6 -10 -7 -17
-15 -14 -19 2 -4 -1 -11 -7 -15 -7 -4 -9 -3 -6 3 3 5 -2 16 -12 24 -20 16 -41
22 -41 12 0 -5 -4 -14 -9 -22 -7 -11 -13 -10 -35 4 -23 16 -26 16 -32 1 -3 -9
-10 -14 -15 -11 -4 3 -6 12 -2 20 3 8 1 15 -5 15 -11 0 -10 -25 1 -36 3 -3 -1
-16 -9 -28 -8 -13 -11 -26 -7 -31 5 -4 3 -5 -4 -1 -7 4 -9 14 -6 24 5 14 2 13
-18 -4 -13 -12 -30 -19 -38 -16 -8 3 -11 0 -7 -6 4 -7 -1 -10 -13 -7 -14 2
-18 -1 -14 -11 3 -7 8 -12 12 -9 4 2 8 -2 8 -10 0 -13 -3 -13 -17 0 -19 17
-32 11 -23 -11 3 -8 0 -14 -7 -14 -7 0 -10 -7 -7 -14 4 -10 1 -13 -7 -10 -17
6 -48 -35 -39 -50 4 -6 0 -5 -8 1 -12 9 -18 10 -27 1 -8 -8 -15 -8 -27 2 -10
8 -15 9 -15 1 0 -6 5 -11 11 -11 5 0 7 -5 3 -12 -4 -7 -3 -8 4 -4 8 5 10 1 5
-10 -5 -13 -3 -15 7 -9 9 5 11 4 6 -4 -4 -6 -12 -9 -17 -6 -5 4 -9 1 -9 -4 0
-6 -5 -11 -11 -11 -8 0 -8 4 0 14 9 11 9 16 0 22 -8 5 -9 3 -4 -6 6 -10 4 -12
-8 -7 -12 4 -14 2 -10 -11 6 -15 5 -16 -13 -2 -18 14 -18 14 -4 -4 14 -18 13
-19 -5 -13 -18 6 -18 6 -3 -6 17 -14 34 -72 18 -62 -5 3 -11 1 -14 -4 -4 -5
-21 -8 -39 -6 -17 2 -26 1 -19 -2 6 -2 12 -9 12 -14 0 -6 -4 -8 -9 -5 -4 3 -6
-6 -3 -19 2 -14 8 -22 13 -19 5 3 9 0 9 -5 0 -14 -17 -14 -25 -1 -9 15 -22 12
-22 -4 0 -8 5 -14 10 -13 5 1 12 -5 14 -13 3 -9 1 -11 -4 -5 -14 17 -39 13
-39 -6 0 -13 3 -15 13 -7 9 7 13 7 13 -1 0 -7 5 -9 12 -5 7 4 8 3 4 -5 -4 -6
-11 -9 -16 -6 -14 9 -48 -12 -61 -37 -10 -18 -9 -20 5 -15 9 4 16 2 16 -4 0
-6 -8 -9 -17 -7 -10 2 -17 11 -15 19 3 12 1 12 -10 1 -11 -11 -10 -16 6 -28
11 -8 15 -14 8 -14 -6 0 -10 -6 -8 -12 1 -7 1 -9 -2 -5 -2 5 -15 -2 -28 -14
-20 -18 -22 -25 -11 -38 6 -8 -3 -5 -21 8 -18 13 -36 20 -39 17 -4 -3 -1 -6 5
-6 18 0 10 -23 -13 -37 -11 -7 -14 -12 -7 -13 7 0 10 -5 7 -10 -4 -6 -11 -8
-16 -5 -5 3 -6 -2 -2 -11 5 -13 3 -15 -7 -9 -9 6 -11 4 -5 -5 6 -10 12 -7 26
11 10 13 19 22 20 19 0 -3 2 -13 4 -22 2 -10 -2 -21 -7 -25 -7 -3 -8 -1 -4 5
4 7 3 12 -2 12 -17 0 -21 -12 -11 -37 6 -16 6 -22 -1 -18 -6 3 -10 12 -10 20
0 7 -7 15 -15 19 -13 4 -13 2 -5 -14 7 -13 7 -21 -1 -26 -9 -5 -8 -10 2 -18
13 -9 12 -13 -3 -28 -10 -10 -18 -14 -18 -9 0 6 5 13 11 17 8 5 6 10 -5 16 -9
5 -13 14 -10 20 4 6 2 8 -4 4 -6 -3 -9 -15 -7 -26 3 -13 -2 -18 -16 -17 -10 1
-19 6 -19 11 0 5 -3 7 -6 4 -3 -4 -1 -15 5 -26 8 -16 8 -24 -4 -35 -15 -15
-11 -27 8 -23 7 2 9 1 5 -1 -4 -2 -4 -12 -1 -21 4 -13 2 -12 -10 3 -16 20 -16
20 -12 -2 2 -13 -1 -22 -8 -20 -6 1 -11 -7 -12 -18 0 -11 -6 -19 -13 -17 -9 2
-12 -5 -8 -20 3 -13 3 -17 0 -10 -9 19 -32 14 -39 -9 -7 -19 -7 -20 -21 -2 -7
10 -14 14 -14 9 0 -5 -7 -3 -15 4 -13 11 -14 10 -9 -4 3 -9 1 -16 -5 -16 -6 0
-11 6 -11 13 0 8 -3 9 -8 1 -4 -6 -15 -10 -24 -8 -10 1 -20 -1 -22 -5 -6 -9
75 -8 90 1 6 4 11 1 11 -7 0 -8 -4 -12 -8 -10 -13 9 -39 -7 -32 -19 4 -6 -1
-5 -10 3 -9 7 -17 10 -17 6 0 -4 -6 -2 -14 4 -9 7 -17 8 -20 2 -7 -10 -25 -9
-43 2 -7 5 -18 5 -23 2 -6 -3 -13 0 -16 9 -3 8 -11 14 -17 12 -7 -1 -9 -1 -4
1 4 3 4 9 1 14 -3 6 -12 5 -22 -3 -15 -12 -16 -11 -3 5 8 9 11 20 8 24 -4 3
-2 11 3 18 6 8 6 12 -3 13 -72 8 -87 16 -67 35 9 8 11 8 6 0 -3 -6 -3 -14 2
-17 4 -2 9 4 9 15 2 16 -2 19 -19 13 -14 -4 -18 -2 -14 5 13 21 14 48 2 48 -7
0 -13 -6 -13 -13 0 -7 5 -10 11 -7 6 4 5 -1 -3 -10 -18 -22 -18 -22 -16 11 1
15 -3 31 -9 35 -6 5 -1 5 11 2 18 -5 22 -3 17 10 -4 9 -13 14 -20 11 -7 -3
-16 -2 -18 3 -7 10 26 10 40 0 7 -5 11 -3 11 6 0 8 -4 12 -9 9 -4 -3 -8 0 -8
6 0 6 -4 9 -8 6 -5 -3 -9 8 -10 25 -3 50 -5 59 -14 59 -4 0 -8 7 -8 15 0 8 5
15 11 15 5 0 7 -4 4 -10 -3 -6 1 -7 10 -4 14 6 14 8 -2 19 -10 7 -22 11 -27 8
-5 -4 -6 -1 -2 5 4 7 2 12 -5 12 -7 0 -9 3 -6 6 4 4 18 -1 33 -10 14 -10 28
-15 32 -12 3 3 0 6 -6 6 -6 0 -9 9 -7 20 2 11 0 18 -5 15 -4 -3 -10 -2 -13 2
-2 5 -2 2 0 -5 1 -7 -2 -10 -7 -7 -14 8 -13 18 5 41 9 10 14 13 13 5 -2 -7 4
-16 12 -18 9 -3 11 -1 5 4 -12 9 -13 23 -2 40 5 8 1 8 -18 0 -13 -7 -26 -19
-28 -27 -2 -10 -5 -7 -9 7 -3 12 -3 22 1 21 20 -2 30 4 25 17 -5 11 -1 14 12
9 17 -5 17 -5 2 6 -9 6 -15 17 -12 25 4 8 1 15 -6 15 -6 0 -8 6 -4 13 4 6 3 8
-1 4 -11 -10 -16 -39 -6 -32 4 2 8 -2 8 -10 0 -10 -4 -12 -12 -5 -7 5 -15 7
-18 3 -4 -3 1 -12 11 -19 9 -8 12 -14 5 -14 -15 0 -27 19 -30 50 -2 21 -1 22
6 6 4 -11 10 -15 13 -10 8 13 -17 66 -27 57 -4 -5 -5 -2 -1 5 4 6 2 13 -3 13
-26 3 -30 4 -37 11 -8 8 31 2 46 -7 6 -3 10 -1 10 5 0 6 -7 13 -15 16 -8 4
-15 10 -15 16 0 5 5 6 10 3 6 -3 10 -1 10 5 0 6 3 9 8 7 4 -3 16 -1 27 4 14 6
8 7 -20 4 -34 -3 -36 -2 -18 7 22 10 40 49 21 45 -6 -1 -13 4 -15 11 -3 6 0
12 6 12 6 0 11 5 11 10 0 6 -6 9 -12 8 -7 -2 -12 3 -10 10 1 8 -2 11 -8 7 -8
-5 -7 -11 1 -21 9 -11 9 -14 -1 -14 -10 0 -10 -3 0 -15 6 -8 8 -20 4 -26 -5
-8 -3 -9 6 -4 9 5 11 4 6 -3 -12 -19 -25 -14 -25 11 -1 53 -2 57 -14 50 -9 -5
-9 -3 -1 8 5 8 16 28 23 44 l12 30 -26 -30 c-25 -28 -25 -28 -10 -3 9 15 14
31 11 37 -11 17 5 40 22 34 18 -7 17 -5 -12 17 -13 10 -17 10 -12 3 4 -7 2
-13 -3 -13 -6 0 -11 4 -11 9 0 14 26 32 35 23 5 -4 5 -1 1 6 -4 7 -12 9 -18 6
-8 -5 -9 -1 -5 10 6 14 3 16 -16 11 -16 -5 -18 -4 -8 4 12 8 13 12 1 25 -11
14 -10 16 4 10 9 -3 16 -10 16 -15 0 -5 5 -9 11 -9 5 0 7 5 3 11 -3 6 0 16 7
21 10 7 8 8 -7 3 -14 -3 -26 1 -35 12 -13 17 -13 17 5 3 18 -14 19 -14 11 5
-4 11 -8 28 -9 38 0 9 -4 17 -9 17 -5 0 -1 7 7 16 9 8 14 20 11 25 -4 5 0 9 7
10 10 0 10 2 1 6 -7 2 -13 9 -13 14 0 6 4 8 8 5 5 -3 9 1 9 8 0 7 -6 13 -13
13 -7 0 -11 -4 -8 -8 2 -4 -1 -11 -8 -15 -7 -4 -10 -4 -6 1 4 4 0 14 -10 22
-16 12 -16 13 2 6 13 -4 17 -3 13 4 -9 15 3 44 15 37 5 -3 4 -11 -3 -20 -8
-10 -8 -14 0 -14 6 0 11 3 12 8 0 4 2 15 4 24 2 10 0 17 -3 17 -21 -3 -23 3
-6 16 18 15 18 15 0 8 -13 -4 -17 -3 -13 4 4 6 4 19 1 28 -5 13 -8 14 -15 3
-5 -7 -9 -17 -9 -23 0 -5 4 -3 10 5 14 22 7 -41 -8 -65 -10 -17 -11 -18 -12
-2 0 9 4 17 9 17 5 0 8 7 7 15 -3 19 -16 32 -16 16 0 -7 -5 -9 -10 -6 -6 4 -4
12 5 21 22 22 19 37 -4 24 -25 -13 -31 -13 -31 1 0 5 4 8 8 5 5 -3 22 4 40 14
21 13 32 15 35 7 2 -7 5 -5 9 4 4 11 -1 15 -17 15 -13 0 -21 -4 -19 -8 3 -4 0
-8 -5 -8 -6 0 -11 9 -11 21 0 16 5 19 23 15 12 -3 16 -3 9 0 -6 3 -10 10 -7
15 4 5 -2 6 -12 2 -16 -6 -16 -5 -4 10 11 14 16 15 29 5 13 -12 14 -10 2 9
-13 19 -15 20 -26 5 -10 -14 -11 -12 -11 11 0 15 4 24 9 21 5 -3 4 3 -4 15 -7
12 -16 21 -20 21 -4 0 -5 8 -2 18 5 14 4 14 -4 2 -8 -10 -8 -18 0 -27 6 -7 7
-13 4 -13 -4 0 -2 -9 4 -19 7 -13 7 -22 0 -26 -5 -3 -10 -11 -10 -16 0 -6 4
-8 8 -5 5 3 9 -1 9 -9 0 -8 -4 -15 -9 -15 -4 0 -8 5 -8 11 0 5 -4 8 -8 5 -5
-3 -9 1 -9 9 0 8 7 17 14 19 11 4 11 10 3 26 -6 11 -8 20 -5 20 3 0 0 6 -7 14
-7 8 -17 11 -23 8 -5 -3 1 7 14 21 20 22 27 25 40 14 8 -6 4 4 -10 23 -25 35
-31 64 -16 87 5 8 -2 10 -23 8 -18 -3 -28 0 -25 5 4 6 15 10 27 10 14 0 18 5
14 15 -3 8 -9 22 -13 32 -5 12 -3 14 7 8 9 -5 11 -4 6 4 -11 17 -29 2 -21 -18
4 -11 3 -13 -4 -6 -13 13 -2 57 12 48 6 -4 7 -1 3 6 -5 7 -14 10 -22 7 -8 -3
-11 0 -7 9 3 8 9 13 13 10 5 -3 12 0 16 6 4 8 3 9 -4 5 -7 -4 -12 -2 -12 4 0
6 -4 9 -9 5 -6 -3 -8 4 -5 17 3 13 5 30 4 38 0 8 -1 27 -1 42 -1 15 -5 25 -10
22 -5 -3 -6 3 -2 12 4 10 2 15 -3 11 -6 -3 -11 3 -11 14 -1 10 2 19 6 19 4 0
8 7 8 15 0 8 -6 15 -13 15 -15 0 -26 28 -13 35 5 4 6 11 3 17 -4 6 -10 5 -16
-3 -7 -10 -8 -9 -4 5 4 10 1 26 -6 34 -10 12 -8 12 13 -2 20 -13 26 -24 24
-46 -1 -16 1 -27 6 -24 5 3 9 2 10 -3 5 -44 4 -61 -4 -56 -5 3 -2 -5 7 -19 9
-13 14 -34 11 -47 -2 -13 -1 -20 3 -17 4 4 7 22 7 39 0 23 4 31 15 29 8 -2 11
0 7 5 -5 4 -14 8 -20 8 -7 0 -12 11 -12 25 0 14 -3 30 -7 36 -12 18 -17 64 -7
64 5 0 9 4 9 10 0 5 -3 9 -7 9 -20 -3 -27 2 -14 10 12 8 12 12 2 25 -10 12
-10 20 -3 29 6 7 7 19 3 26 -6 10 -10 8 -16 -6 -5 -10 -9 -24 -9 -32 -1 -17
-26 -28 -26 -11 0 6 -5 8 -11 5 -6 -4 -5 2 2 13 7 12 16 19 19 17 4 -3 7 9 8
25 1 26 -7 34 -29 32 -3 -1 -6 6 -6 13 0 12 3 12 15 2 8 -6 18 -11 21 -9 3 2
8 -5 12 -15 7 -16 8 -15 8 5 1 20 -9 27 -33 23 -5 -1 -6 7 -3 19 3 11 0 23 -5
27 -6 3 -8 1 -4 -5 9 -16 -14 -26 -27 -13 -9 9 -7 10 8 5 11 -4 17 -4 13 1 -4
4 -2 15 5 23 10 13 9 15 -5 9 -10 -3 -20 -1 -24 5 -4 6 -3 8 4 4 6 -3 13 -2
17 4 9 15 27 1 21 -16 -3 -8 -2 -14 3 -14 5 0 11 9 14 20 3 11 0 18 -7 17 -6
-1 -10 4 -8 11 2 10 -2 10 -17 2 -31 -16 -35 -12 -10 9 16 13 28 16 36 10 7
-7 14 -6 19 2 4 8 3 9 -5 5 -6 -4 -14 0 -17 9 -5 13 -9 14 -15 4 -10 -18 -36
-20 -36 -3 0 10 4 11 14 3 19 -16 16 1 -4 24 -11 13 -12 17 -4 12 11 -6 13 -4
8 8 -4 11 -2 14 9 10 11 -4 12 -9 3 -19 -7 -9 -8 -14 -1 -14 17 0 21 25 6 44
-7 11 -10 24 -6 30 11 18 13 46 3 46 -6 0 -8 -10 -6 -21 3 -12 1 -18 -3 -15
-4 4 -7 11 -7 14 -1 4 -7 18 -14 31 -7 13 -8 21 -3 17 6 -3 13 -2 17 3 3 5 -3
14 -12 20 -10 6 -13 11 -8 11 6 0 16 -5 22 -11 12 -12 9 44 -4 64 -14 22 -11
56 4 50 12 -5 12 -7 1 -14 -11 -7 -11 -9 1 -9 7 0 11 -6 8 -13 -3 -8 -1 -20 5
-28 8 -12 9 -12 5 1 -2 8 0 23 4 32 6 10 5 19 -2 23 -7 5 -4 14 8 28 l18 22
-22 -19 c-20 -17 -25 -14 -22 10 0 4 -5 10 -13 15 -9 6 -6 8 9 6 17 -1 19 -4
11 -14 -18 -22 -2 -14 18 9 10 12 13 18 7 14 -7 -4 -13 -2 -13 3 0 6 6 11 13
11 8 0 7 4 -3 10 -8 5 -11 10 -6 10 5 0 3 6 -3 13 -6 8 -8 17 -4 20 3 4 0 7
-7 7 -7 0 -11 2 -8 5 3 3 13 2 22 -1 12 -5 14 -9 6 -14 -6 -4 4 -7 22 -7 18 0
27 2 20 5 -6 2 -10 8 -7 13 4 5 -2 6 -11 2 -13 -5 -15 -3 -9 7 5 8 4 11 -3 6
-6 -4 -16 4 -22 16 -10 20 -9 21 2 6 11 -12 18 -14 33 -6 18 11 18 11 0 24
-10 8 -14 14 -8 14 18 0 34 -25 22 -37 -7 -7 -6 -12 4 -16 17 -6 15 29 -2 62
-9 17 -9 21 1 19 8 -2 12 5 10 17 -2 20 -2 20 9 1 9 -15 9 -21 1 -24 -7 -2
-12 -9 -12 -15 1 -7 9 -2 20 11 10 12 21 18 24 13 3 -5 0 -14 -8 -20 -7 -6
-13 -23 -13 -37 0 -17 2 -22 7 -13 5 6 6 17 4 24 -3 6 2 18 11 25 11 10 13 16
4 26 -6 8 -14 12 -18 10 -4 -3 -8 5 -8 17 -2 17 0 18 7 7 7 -12 13 -11 33 9
16 14 27 19 32 12 8 -14 25 -14 25 0 0 5 -4 7 -10 4 -5 -3 -10 -2 -10 3 0 14
12 22 24 15 15 -10 40 -13 31 -5 -4 4 -12 7 -18 7 -7 0 -13 10 -15 23 -2 14
-8 20 -15 15 -7 -4 -6 1 2 10 9 12 21 15 35 11 19 -6 20 -5 6 12 -11 13 -6 12
20 -6 19 -13 29 -17 23 -9 -20 25 -3 30 19 6 11 -12 16 -15 12 -7 -13 24 -15
48 -4 55 6 4 7 12 4 18 -4 7 -1 6 7 -2 11 -10 11 -15 2 -18 -7 -3 -13 -9 -13
-14 0 -6 4 -7 10 -4 6 3 7 -1 4 -12 -3 -10 1 -7 9 7 9 14 13 28 11 32 -3 4 2
5 10 2 11 -4 14 0 11 15 -2 12 0 19 6 16 5 -4 9 -1 9 6 0 7 3 9 6 6 4 -4 2
-13 -5 -21 -9 -11 -8 -15 4 -19 8 -4 13 -12 11 -19 -1 -7 -1 -10 1 -5 3 4 9 4
15 1 5 -4 5 4 -2 16 -15 28 -2 39 41 34 17 -2 28 0 24 5 -3 5 6 8 20 7 14 -2
29 2 35 9 13 15 39 15 34 0z m143 -4 c0 -11 -5 -18 -9 -15 -4 3 -5 11 -1 19 7
21 12 19 10 -4z m630 13 c-3 -3 -12 -4 -19 -1 -8 3 -5 6 6 6 11 1 17 -2 13 -5z
m219 -7 c3 -3 -10 -5 -30 -3 -19 1 -37 4 -41 7 -3 3 11 5 30 4 20 -2 39 -5 41
-8z m1044 -1 c0 -2 -7 -7 -16 -10 -8 -3 -12 -2 -9 4 6 10 25 14 25 6z m-90
-66 c-3 -3 -10 -5 -16 -5 -6 0 -19 -6 -28 -14 -14 -12 -16 -11 -16 8 0 11 5
21 11 21 5 0 7 6 3 13 -4 6 2 3 14 -7 26 -23 28 -15 6 22 -15 25 -14 24 7 -3
13 -16 22 -32 19 -35z m328 43 c-9 -2 -15 -10 -12 -17 3 -7 -2 -13 -10 -13
-11 0 -13 5 -5 19 5 10 17 17 27 17 16 -1 16 -2 0 -6z m-2118 -23 c-8 -6 -13
-10 -10 -11 3 0 13 -2 23 -4 9 -2 17 1 17 6 0 5 4 9 9 9 8 0 8 -8 2 -39 -1 -2
-8 2 -16 9 -8 7 -15 9 -15 5 0 -4 -6 -2 -14 4 -7 6 -22 8 -32 5 -24 -9 -12 5
18 21 26 13 40 9 18 -5z m2170 -10 c0 -5 -7 -7 -15 -4 -8 4 -15 8 -15 10 0 2
7 4 15 4 8 0 15 -4 15 -10z m-2999 -23 c-6 -8 -9 -16 -6 -18 2 -3 -5 -5 -16
-5 -19 0 -19 1 3 18 28 21 34 23 19 5z m389 3 c-8 -5 -19 -10 -25 -10 -5 0 -3
5 5 10 8 5 20 10 25 10 6 0 3 -5 -5 -10z m583 -4 c4 -10 1 -13 -8 -9 -8 3 -12
9 -9 14 7 12 11 11 17 -5z m-1021 -3 c-6 -2 -10 -9 -7 -13 3 -5 1 -11 -4 -14
-7 -5 -8 11 -2 32 1 1 7 2 14 1 9 0 9 -2 -1 -6z m1077 -49 c-12 -15 -11 -16
11 -11 14 4 19 4 12 1 -16 -8 -5 -25 12 -18 8 3 17 0 21 -5 3 -6 12 -8 18 -5
7 4 8 3 4 -1 -14 -15 -41 -14 -59 2 -10 9 -18 12 -18 7 0 -5 -4 -3 -9 5 -9 13
8 56 18 46 2 -3 -2 -12 -10 -21z m-1093 -12 c0 -10 -6 -19 -13 -19 -8 0 -9 6
-2 19 5 10 11 18 12 18 2 0 3 -8 3 -18z m365 -15 c-1 -4 -3 -6 -5 -4 -2 1 -14
-11 -27 -27 -19 -25 -23 -26 -31 -11 -6 9 -7 19 -4 22 3 4 6 1 6 -5 0 -7 5
-12 11 -12 6 0 8 7 5 16 -3 8 -2 12 4 9 6 -3 13 1 16 10 6 15 26 17 25 2z
m2039 3 c0 -5 -5 -10 -11 -10 -5 0 -7 5 -4 10 3 6 8 10 11 10 2 0 4 -4 4 -10z
m812 -2 c-19 -19 5 -40 32 -27 20 10 20 10 2 -5 -17 -13 -22 -14 -35 -2 -9 7
-23 11 -31 9 -8 -2 -4 5 10 16 27 22 41 28 22 9z m-3272 -38 c0 -5 -5 -10 -11
-10 -5 0 -7 5 -4 10 3 6 8 10 11 10 2 0 4 -4 4 -10z m1270 6 c0 -3 -4 -8 -10
-11 -5 -3 -10 -1 -10 4 0 6 5 11 10 11 6 0 10 -2 10 -4z m100 -11 c11 -13 10
-14 -4 -9 -9 3 -16 10 -16 15 0 13 6 11 20 -6z m933 0 c-3 -9 -8 -14 -10 -11
-3 3 -2 9 2 15 9 16 15 13 8 -4z m1384 -45 c-6 -11 -14 -20 -18 -20 -10 0 -6
35 5 42 18 12 26 -2 13 -22z m-3672 -10 c3 -5 1 -10 -4 -10 -6 0 -11 5 -11 10
0 6 2 10 4 10 3 0 8 -4 11 -10z m1471 -2 c5 -7 3 -8 -6 -3 -10 6 -12 2 -7 -15
4 -16 3 -20 -5 -12 -6 6 -8 18 -5 26 8 19 13 20 23 4z m721 -4 c-3 -3 -12 -4
-19 -1 -8 3 -5 6 6 6 11 1 17 -2 13 -5z m1146 -17 c4 3 7 2 7 -4 0 -6 -8 -14
-17 -17 -10 -4 -14 -4 -11 0 4 4 3 16 -3 28 -9 19 -9 19 4 4 8 -10 17 -15 20
-11z m-1213 3 c0 -5 -5 -10 -11 -10 -5 0 -7 5 -4 10 3 6 8 10 11 10 2 0 4 -4
4 -10z m-2123 -15 c0 -8 -4 -12 -9 -9 -5 3 -6 10 -3 15 9 13 12 11 12 -6z
m1574 -4 c-8 -5 -10 -14 -6 -22 6 -11 5 -11 -5 -2 -14 12 -6 33 13 33 8 0 7
-3 -2 -9z m2127 -102 c-3 -8 -7 -3 -11 10 -4 17 -3 21 5 13 5 -5 8 -16 6 -23z
m-3462 -6 c-2 -9 -10 -17 -19 -19 -13 -2 -14 1 -4 17 15 23 26 25 23 2z m-316
-33 c0 -5 -6 -10 -12 -10 -9 0 -8 -3 2 -10 12 -7 10 -9 -6 -8 -18 2 -20 5 -10
20 12 20 26 24 26 8z m3820 -44 c0 -2 -6 -9 -14 -15 -11 -9 -16 -9 -22 0 -4 7
-3 9 4 5 6 -3 13 -2 17 4 6 10 15 14 15 6z m-320 -36 c0 -5 -5 -10 -11 -10 -5
0 -7 5 -4 10 3 6 8 10 11 10 2 0 4 -4 4 -10z m7 -45 c-4 -8 -12 -15 -19 -14
-10 0 -10 2 0 6 6 2 12 12 12 21 0 8 3 13 6 9 4 -3 4 -13 1 -22z m310 8 c0 -7
-4 -13 -8 -13 -4 0 -9 6 -12 13 -3 8 0 14 7 14 7 0 13 -6 13 -14z m7 -65 c-2
-3 -13 -6 -24 -5 -24 2 -18 13 9 13 11 0 18 -4 15 -8z m-9 -47 c3 -5 0 -13 -6
-17 -7 -4 -9 -3 -5 4 3 5 0 13 -6 15 -9 4 -10 6 -1 6 6 1 14 -3 18 -8z m-3520
-39 c-3 -3 -11 0 -18 7 -9 10 -8 11 6 5 10 -3 15 -9 12 -12z m2 -18 c-3 -3
-12 -4 -19 -1 -8 3 -5 6 6 6 11 1 17 -2 13 -5z m3518 -34 c4 -6 -1 -7 -12 -4
-17 5 -17 5 0 -9 16 -14 16 -15 1 -21 -9 -4 -19 -4 -22 -1 -3 3 0 5 8 5 9 0
10 3 1 13 -11 13 -6 27 10 27 4 0 11 -4 14 -10z m-35 -124 c0 -8 -4 -17 -8
-20 -4 -2 -8 4 -8 15 0 10 4 19 8 19 4 0 8 -6 8 -14z m-3772 -32 c7 -15 17
-22 24 -18 7 4 8 3 4 -5 -4 -6 -11 -9 -16 -6 -5 3 -11 1 -15 -4 -3 -5 3 -14
12 -20 10 -6 14 -10 8 -11 -5 0 -16 4 -24 9 -13 8 -13 12 0 27 12 16 12 17 -4
11 -10 -4 -16 -3 -12 2 3 5 1 12 -5 16 -11 7 -4 25 9 25 4 0 13 -12 19 -26z
m3472 22 c0 -11 -19 -15 -25 -6 -3 5 1 10 9 10 9 0 16 -2 16 -4z m315 -46 c8
-13 -5 -13 -25 0 -13 8 -13 10 2 10 9 0 20 -4 23 -10z m-3477 -50 c-7 -10 -14
-18 -15 -16 -6 6 9 36 18 36 5 0 4 -9 -3 -20z m-258 -15 c-5 -7 -8 -14 -5 -17
3 -2 -2 -5 -10 -5 -10 0 -12 4 -5 12 5 7 8 14 5 17 -3 2 2 5 10 5 10 0 12 -4
5 -12z m301 -68 c-7 -7 -7 -15 1 -26 11 -15 10 -15 -5 0 -18 16 -13 54 5 43 6
-4 6 -10 -1 -17z m-325 -12 c-1 -8 -5 -18 -9 -21 -4 -4 -7 -12 -7 -17 0 -6 12
0 27 14 15 13 22 17 15 8 -6 -9 -10 -19 -7 -22 3 -4 2 -5 -2 -2 -3 3 -12 0
-18 -5 -9 -7 -16 -6 -25 5 -7 9 -8 15 -2 15 6 0 9 11 8 24 -2 16 1 23 9 19 7
-2 12 -11 11 -18z m3458 7 c3 -5 -1 -9 -9 -9 -8 0 -12 4 -9 9 3 4 7 8 9 8 2 0
6 -4 9 -8z m-3179 -42 c2 -12 1 -20 -2 -16 -4 4 -8 16 -10 28 -4 28 6 18 12
-12z m3448 10 c-3 -11 -9 -20 -15 -20 -5 0 -4 9 2 20 6 11 12 20 14 20 2 0 2
-9 -1 -20z m-3711 -39 c-14 -8 -13 -32 1 -42 5 -3 1 -9 -8 -12 -9 -4 -14 -3
-11 2 3 5 -1 15 -10 22 -14 12 -14 14 2 26 10 7 23 13 28 13 6 0 5 -4 -2 -9z
m24 -21 c0 -12 -4 -16 -9 -11 -5 5 -6 14 -3 20 10 15 12 14 12 -9z m3388 -12
c-3 -4 -11 -5 -19 -1 -21 7 -19 12 4 10 11 0 18 -5 15 -9z m-47 -12 c-3 -7 -1
-19 4 -25 6 -8 5 -8 -3 -1 -15 13 -19 40 -6 40 6 0 8 -6 5 -14z m-3080 -11 c0
-8 -4 -12 -9 -9 -5 3 -6 10 -3 15 9 13 12 11 12 -6z m3086 -58 c3 -8 0 -14 -7
-14 -7 0 -13 6 -13 14 0 7 4 13 8 13 4 0 9 -6 12 -13z m-3328 -46 c3 -5 2 -12
-3 -15 -5 -3 -9 1 -9 9 0 17 3 19 12 6z m-7 -75 c-7 -8 -17 -12 -22 -9 -4 3
-2 9 5 14 22 13 31 11 17 -5z m3633 1 c-6 -8 -7 -18 -3 -22 4 -5 1 -5 -5 -1
-8 4 -13 2 -13 -5 0 -7 -3 -10 -6 -7 -7 8 18 48 30 48 4 0 3 -6 -3 -13z
m-3635 -91 c0 -14 -6 -22 -13 -19 -9 4 -9 9 0 24 15 24 15 24 13 -5z m331 -91
c0 -8 -4 -15 -9 -15 -10 0 -11 14 -1 23 9 10 10 9 10 -8z m10 -63 c9 -15 7
-21 -11 -32 -11 -7 -18 -9 -14 -5 4 4 0 14 -8 22 -15 16 -11 33 9 33 7 0 17
-8 24 -18z m2962 -12 c5 -16 8 -30 6 -30 -2 0 -10 14 -19 30 -8 17 -11 30 -6
30 4 0 13 -13 19 -30z m302 -19 c-7 -5 -17 -15 -22 -22 -6 -10 -8 -8 -7 7 1
12 10 21 22 22 15 1 17 -1 7 -7z m-3556 -21 c3 -5 1 -10 -4 -10 -6 0 -11 5
-11 10 0 6 2 10 4 10 3 0 8 -4 11 -10z m3225 -85 c0 -8 -4 -15 -8 -15 -5 0 -9
7 -9 15 0 8 4 15 9 15 4 0 8 -7 8 -15z m-3200 -15 c0 -5 -2 -10 -4 -10 -3 0
-8 5 -11 10 -3 6 -1 10 4 10 6 0 11 -4 11 -10z m3510 6 c0 -7 -40 -14 -44 -7
-3 4 6 8 20 9 13 1 24 0 24 -2z m16 -25 c0 -11 -5 -17 -13 -14 -17 6 -17 20 0
26 6 3 12 6 12 6 1 1 1 -7 1 -18z m-3526 -21 c0 -5 -5 -10 -11 -10 -5 0 -7 5
-4 10 3 6 8 10 11 10 2 0 4 -4 4 -10z m258 -10 c-7 -10 -14 -17 -17 -15 -4 4
18 35 25 35 2 0 -1 -9 -8 -20z m-278 -16 c0 -2 -7 -4 -15 -4 -8 0 -15 4 -15
10 0 5 7 7 15 4 8 -4 15 -8 15 -10z m9 -36 c-12 -22 -12 -22 -32 0 -15 17 -15
18 12 17 25 0 28 -3 20 -17z m3221 7 c0 -2 -9 -9 -19 -15 -14 -7 -22 -7 -27 2
-4 6 -3 8 2 5 6 -3 16 -2 24 4 17 10 20 11 20 4z m-3189 -42 c13 -17 13 -17
-6 -3 -11 8 -22 16 -24 17 -2 2 0 3 6 3 6 0 17 -8 24 -17z m3477 4 c9 -7 10
-13 0 -30 -7 -12 -12 -25 -13 -29 0 -4 -5 -12 -12 -19 -8 -8 -9 -18 -2 -31 13
-24 -1 -50 -21 -38 -13 8 -12 10 3 10 9 0 17 5 17 11 0 5 -5 7 -12 3 -7 -4 -8
-3 -4 5 4 6 2 20 -5 29 -7 9 -10 14 -5 10 10 -8 36 14 29 25 -3 4 -12 2 -21
-5 -10 -8 -8 -1 5 18 16 22 19 34 11 42 -12 12 9 12 30 -1z m-3491 -31 c-1 -6
3 -10 8 -9 6 1 11 -7 11 -17 0 -16 -4 -14 -25 8 -31 34 -37 56 -11 39 10 -6
18 -16 17 -21z m273 4 c0 -5 -5 -10 -11 -10 -5 0 -7 5 -4 10 3 6 8 10 11 10 2
0 4 -4 4 -10z m52 -105 c2 3 5 -2 5 -10 0 -21 -10 -19 -26 8 -13 19 -12 21 1
10 8 -7 17 -11 20 -8z m2841 -8 c3 -8 -1 -14 -8 -14 -7 0 -11 6 -8 14 3 7 6
13 8 13 2 0 5 -6 8 -13z m-1554 -131 c9 -11 9 -16 0 -22 -8 -4 -9 -3 -5 4 4 7
2 12 -3 12 -10 0 -15 -14 -12 -32 0 -5 -3 -8 -9 -8 -13 0 -13 3 2 35 13 29 12
29 27 11z m77 -9 c1 -7 -7 -13 -18 -13 -17 0 -17 2 -4 12 9 6 14 14 11 17 -3
4 -2 5 2 2 4 -3 8 -11 9 -18z m1764 9 c0 -2 -6 -9 -14 -15 -11 -9 -16 -9 -22
0 -4 8 -3 9 4 5 7 -4 12 -2 12 3 0 6 5 11 10 11 6 0 10 -2 10 -4z m-1625 -15
c3 -5 2 -12 -3 -15 -5 -3 -9 1 -9 9 0 17 3 19 12 6z m1290 -1 c-3 -5 -1 -10 4
-10 6 0 11 -5 11 -11 0 -8 -5 -8 -15 1 -17 14 -20 30 -4 30 5 0 7 -4 4 -10z
m-1160 -30 c5 -8 11 -8 20 0 10 9 16 7 24 -9 8 -14 8 -22 -1 -27 -7 -4 -8 -3
-4 4 7 12 -1 15 -36 15 -10 0 -15 3 -13 7 3 5 -1 11 -7 13 -9 4 -10 6 -1 6 6
1 15 -4 18 -9z m-1621 -18 c3 -5 -1 -9 -9 -9 -8 0 -12 4 -9 9 3 4 7 8 9 8 2 0
6 -4 9 -8z m1698 -37 c0 -5 -5 -11 -11 -13 -6 -2 -11 4 -11 13 0 9 5 15 11 13
6 -2 11 -8 11 -13z m15 -31 c-3 -3 -12 -4 -19 -1 -8 3 -5 6 6 6 11 1 17 -2 13
-5z m73 -40 c5 -5 6 -14 2 -21 -5 -7 -13 -3 -24 12 -15 19 -15 23 -3 21 9 -1
19 -6 25 -12z m-2073 -39 c0 -8 -4 -12 -9 -9 -4 3 -8 9 -8 15 0 5 4 9 8 9 5 0
9 -7 9 -15z m3383 -10 c-7 -8 -9 -19 -5 -25 8 -14 -21 -60 -38 -59 -9 0 -9 2
1 6 10 4 10 8 0 21 -12 15 -11 16 5 3 20 -15 22 -9 6 21 -9 16 -8 19 2 13 8
-6 11 -4 6 7 -6 18 11 40 25 32 5 -3 4 -12 -2 -19z m-2080 5 c0 -5 -4 -10 -10
-10 -5 0 -10 5 -10 10 0 6 5 10 10 10 6 0 10 -4 10 -10z m1762 -22 c-8 -8 -9
-4 -5 13 4 13 8 18 11 10 2 -7 -1 -18 -6 -23z m-22 -19 c0 -5 4 -8 8 -5 4 2 8
-4 8 -14 0 -11 -2 -17 -5 -15 -2 3 -11 -1 -20 -7 -13 -10 -14 -10 -3 2 14 16
16 34 4 26 -5 -3 -9 1 -9 9 0 8 4 15 9 15 4 0 8 -5 8 -11z m-1805 -19 c3 -5
-1 -10 -10 -10 -9 0 -13 5 -10 10 3 6 8 10 10 10 2 0 7 -4 10 -10z m392 -45
c-12 -11 -24 -17 -25 -12 -2 4 -8 5 -13 1 -5 -3 -9 0 -9 6 0 7 7 10 15 7 18
-7 30 9 13 17 -7 3 -2 3 12 0 20 -5 23 -4 13 7 -7 7 -13 17 -13 23 0 5 6 1 14
-9 12 -17 12 -22 -7 -40z m33 45 c0 -5 -2 -10 -4 -10 -3 0 -8 5 -11 10 -3 6
-1 10 4 10 6 0 11 -4 11 -10z m435 -19 c3 -5 2 -12 -3 -15 -5 -3 -9 1 -9 9 0
17 3 19 12 6z m-2108 -33 c2 -17 0 -19 -7 -8 -5 8 -6 18 -4 22 8 12 10 10 11
-14z m3374 9 c-6 -8 -9 -16 -6 -18 2 -3 -4 -10 -15 -17 -14 -8 -21 -9 -26 0
-4 6 -3 8 3 5 6 -4 18 4 27 18 9 14 19 25 22 25 4 0 1 -6 -5 -13z m-1226 -37
c3 -5 1 -10 -4 -10 -6 0 -11 5 -11 10 0 6 2 10 4 10 3 0 8 -4 11 -10z m1215
-15 c-9 -11 -9 -15 -1 -15 7 0 9 -5 4 -12 -4 -7 -8 -17 -8 -22 0 -5 -6 -11
-12 -13 -16 -6 -17 13 -2 22 6 4 8 13 5 20 -2 7 1 18 7 24 16 16 21 13 7 -4z
m-2170 1 c0 -2 -7 -9 -15 -16 -13 -11 -14 -10 -9 4 5 14 24 23 24 12z m2117
-35 c0 -11 -5 -18 -9 -15 -4 3 -5 11 -1 19 7 21 12 19 10 -4z m-2982 -19 c-3
-3 -11 0 -18 7 -9 10 -8 11 6 5 10 -3 15 -9 12 -12z m-292 -25 c-4 -6 1 -8 11
-4 10 4 15 3 11 -3 -4 -6 -18 -8 -33 -6 -26 5 -26 4 -7 -10 19 -14 19 -15 0
-32 -18 -16 -18 -16 -6 1 8 9 9 17 3 17 -15 0 -24 32 -12 40 17 10 40 8 33 -3z
m1465 -10 c7 -8 6 -18 -4 -31 -12 -17 -14 -18 -14 -3 0 9 6 17 13 17 7 0 4 7
-7 15 -11 8 -15 15 -9 15 6 0 15 -6 21 -13z m747 3 c-3 -5 -12 -10 -18 -10 -7
0 -6 4 3 10 19 12 23 12 15 0z m1117 -4 c13 -19 8 -32 -5 -15 -7 9 -20 15 -30
13 -9 -1 -15 1 -12 5 7 12 39 9 47 -3z m-331 -19 c-10 -9 -11 -8 -5 6 3 10 9
15 12 12 3 -3 0 -11 -7 -18z m-1561 3 c0 -5 -5 -10 -11 -10 -5 0 -7 5 -4 10 3
6 8 10 11 10 2 0 4 -4 4 -10z m-1403 -32 c2 -17 0 -19 -7 -8 -5 8 -6 18 -4 22
8 12 10 10 11 -14z m1827 6 c6 2 7 1 2 -2 -4 -2 -2 -8 5 -13 8 -5 9 -9 3 -9
-6 0 -19 10 -30 23 -10 12 -12 17 -5 10 7 -6 19 -10 25 -9z m-770 -10 c3 -8 2
-12 -4 -9 -6 3 -10 10 -10 16 0 14 7 11 14 -7z m1926 -9 c0 -2 -9 -3 -19 -2
-11 0 -18 5 -15 9 4 6 34 0 34 -7z m253 -10 c-3 -9 -8 -14 -10 -11 -3 3 -2 9
2 15 9 16 15 13 8 -4z m-1380 -12 c-10 -4 -10 -7 0 -18 7 -7 16 -10 21 -7 5 3
6 0 2 -7 -6 -9 -13 -8 -27 5 -15 13 -16 20 -8 31 7 7 15 11 18 7 3 -4 1 -9 -6
-11z m-469 -14 c-17 -19 -34 -17 -34 4 0 7 4 6 10 -3 8 -13 14 -8 12 11 -1 3
6 6 14 6 12 0 11 -4 -2 -18z m873 -12 c7 -4 9 -15 6 -24 -5 -12 -3 -14 7 -8 9
5 11 4 6 -4 -4 -6 -2 -18 4 -26 7 -8 8 -15 3 -15 -5 0 -15 12 -21 26 -7 15
-17 23 -25 19 -6 -4 -4 0 5 8 10 8 15 17 11 20 -3 4 -11 2 -18 -3 -8 -7 -12
-5 -12 4 0 14 14 16 34 3z m698 4 c3 -5 2 -12 -3 -15 -5 -3 -9 1 -9 9 0 17 3
19 12 6z m-1040 -10 c3 -5 2 -12 -3 -15 -5 -3 -9 1 -9 9 0 17 3 19 12 6z
m-1932 -29 c-10 -10 -20 -17 -22 -16 -6 5 20 34 30 34 5 0 1 -8 -8 -18z m3228
-5 c-10 -9 -11 -8 -5 6 3 10 9 15 12 12 3 -3 0 -11 -7 -18z m-1281 -12 c7 -9
8 -15 2 -15 -5 0 -12 7 -16 15 -3 8 -4 15 -2 15 2 0 9 -7 16 -15z m-1655 -4
c3 -5 2 -12 -3 -15 -5 -3 -9 1 -9 9 0 17 3 19 12 6z m644 -37 c-6 -7 -17 -10
-26 -7 -13 5 -13 7 1 15 9 5 13 15 9 21 -4 7 0 6 10 -2 13 -10 14 -17 6 -27z
m-897 12 c7 4 8 2 4 -5 -9 -13 -26 -5 -25 12 0 9 2 8 6 -1 2 -6 10 -9 15 -6z
m2880 -54 c-4 -12 -7 -12 -19 4 -10 14 -10 19 -1 25 15 10 28 -9 20 -29z
m-582 14 c0 -2 -7 -7 -16 -10 -8 -3 -12 -2 -9 4 6 10 25 14 25 6z m590 -64 c0
-5 -7 -9 -15 -9 -8 0 -12 4 -9 9 3 4 9 8 15 8 5 0 9 -4 9 -8z m-3 -28 c-3 -3
-12 -4 -19 -1 -8 3 -5 6 6 6 11 1 17 -2 13 -5z m-2101 -45 c19 -22 19 -22 -3
-8 -13 8 -23 17 -23 21 0 12 6 9 26 -13z m1621 5 c-3 -3 -12 -4 -19 -1 -8 3
-5 6 6 6 11 1 17 -2 13 -5z m-1622 -34 c3 -6 -1 -7 -9 -4 -18 7 -21 14 -7 14
6 0 13 -4 16 -10z m-775 -45 c-7 -8 -17 -15 -23 -15 -6 0 -2 7 9 15 25 19 30
19 14 0z m390 -30 c0 -2 -9 -3 -19 -2 -11 0 -18 5 -15 9 4 6 34 0 34 -7z m0
-19 c0 -2 -7 -6 -15 -10 -8 -3 -15 -1 -15 4 0 6 7 10 15 10 8 0 15 -2 15 -4z
m647 -23 c-4 -3 -1 -13 6 -22 11 -14 10 -14 -5 -2 -16 12 -16 31 -1 31 4 0 3
-3 0 -7z m2098 -31 c-3 -3 -11 0 -18 7 -9 10 -8 11 6 5 10 -3 15 -9 12 -12z
m-967 -17 c-3 -3 -9 2 -12 12 -6 14 -5 15 5 6 7 -7 10 -15 7 -18z m-2144 -1
c3 -8 2 -12 -4 -9 -6 3 -10 1 -10 -4 0 -6 5 -11 10 -11 6 0 10 -5 10 -12 0 -8
-5 -7 -15 3 -9 9 -13 23 -9 32 8 21 10 21 18 1z m3112 -13 c-9 -10 -19 -28
-21 -41 -8 -44 -36 -60 -41 -24 -2 13 0 13 14 2 14 -11 15 -10 9 6 -5 12 -3
22 5 27 9 6 9 12 -2 26 -11 14 -11 15 -1 6 11 -9 17 -9 28 3 21 21 29 17 9 -5z
m-982 -7 c3 -8 2 -12 -4 -9 -6 3 -10 1 -10 -6 0 -7 -2 -10 -5 -7 -5 5 4 38 10
38 2 0 6 -7 9 -16z m411 6 c3 -5 1 -10 -4 -10 -6 0 -11 5 -11 10 0 6 2 10 4
10 3 0 8 -4 11 -10z m577 -32 c-7 -7 -12 -8 -12 -2 0 14 12 26 19 19 2 -3 -1
-11 -7 -17z m-895 -43 c0 -8 -4 -12 -9 -9 -5 3 -6 10 -3 15 9 13 12 11 12 -6z
m828 -25 c3 -6 -1 -7 -9 -4 -18 7 -21 14 -7 14 6 0 13 -4 16 -10z m-802 -34
c8 5 9 4 2 -4 -11 -13 -55 -5 -55 10 0 5 9 4 20 -2 11 -6 26 -8 33 -4z m-1428
-26 c-3 -5 -14 -10 -23 -9 -14 0 -13 2 3 9 27 11 27 11 20 0z m2173 -12 c11
-14 11 -16 -3 -14 -8 1 -21 8 -28 16 -9 10 -9 11 1 6 7 -4 12 -2 12 5 0 7 1
10 3 8 1 -2 8 -12 15 -21z m-593 -68 c-3 -5 -12 -10 -18 -10 -7 0 -6 4 3 10
19 12 23 12 15 0z m-2171 -26 c3 -8 2 -12 -4 -9 -6 3 -10 10 -10 16 0 14 7 11
14 -7z m447 -8 c5 3 9 1 9 -4 0 -18 -26 -20 -45 -5 -17 13 -17 15 -2 10 10 -4
17 -1 18 6 0 9 2 9 6 -1 2 -6 9 -10 14 -6z m-137 -33 c5 -12 4 -13 -7 -5 -8 7
-16 9 -19 6 -3 -3 -8 -1 -11 3 -3 5 3 9 13 10 10 1 21 -5 24 -14z"/>
<path d="M2140 4466 c0 -3 9 -10 20 -16 11 -6 20 -8 20 -6 0 3 -9 10 -20 16
-11 6 -20 8 -20 6z"/>
<path d="M1491 4346 c-7 -8 -18 -13 -25 -10 -7 3 -19 -2 -26 -11 -11 -13 -15
-13 -21 -3 -7 10 -9 10 -9 -1 0 -10 -3 -11 -14 -2 -8 7 -17 8 -20 3 -3 -6 1
-15 9 -22 8 -7 15 -9 15 -4 0 4 7 -1 15 -12 15 -18 15 -18 8 0 -4 13 -3 17 5
12 6 -3 13 -2 17 4 3 5 11 10 17 10 6 0 5 -7 -3 -17 -12 -14 -9 -13 15 2 28
18 29 18 42 0 8 -10 14 -14 14 -9 0 6 -6 16 -12 23 -11 12 -9 13 7 7 11 -4 25
-8 30 -9 6 -1 13 -6 17 -11 3 -5 5 2 5 16 -2 22 -27 37 -27 16 0 -4 -5 -8 -11
-8 -5 0 -7 5 -3 12 4 6 3 8 -4 4 -6 -3 -15 1 -20 9 -8 14 -10 15 -21 1z m15
-18 c4 -7 3 -8 -4 -4 -7 4 -12 2 -12 -4 0 -7 -7 -9 -16 -6 -9 4 -24 1 -33 -6
-14 -12 -15 -11 -2 5 8 10 20 16 27 13 7 -3 16 -1 19 4 8 13 12 12 21 -2z"/>
<path d="M3666 4328 c3 -5 10 -6 15 -3 13 9 11 12 -6 12 -8 0 -12 -4 -9 -9z"/>
<path d="M3542 4314 c-14 -9 -28 -12 -35 -7 -7 4 -5 1 5 -8 9 -9 15 -19 13
-23 -3 -3 -2 -3 3 0 4 3 7 11 7 17 0 5 6 12 14 15 9 3 11 0 6 -9 -6 -11 -5
-11 5 -2 22 20 7 35 -18 17z"/>
<path d="M1325 4292 c-15 -10 -16 -29 -2 -29 7 0 13 9 13 19 0 10 0 18 -1 18
0 0 -4 -4 -10 -8z"/>
<path d="M1590 4291 c0 -5 7 -12 16 -15 14 -5 15 -4 4 9 -14 17 -20 19 -20 6z"/>
<path d="M3617 4281 c-4 -17 -3 -21 5 -13 5 5 8 16 6 23 -3 8 -7 3 -11 -10z"/>
<path d="M3562 4278 c-7 -7 -12 -17 -12 -22 0 -6 5 -3 11 7 6 9 14 15 20 12 5
-4 9 -1 9 4 0 14 -13 14 -28 -1z"/>
<path d="M3675 4279 c-3 -4 2 -6 10 -5 21 3 28 13 10 13 -9 0 -18 -4 -20 -8z"/>
<path d="M1390 4270 c0 -5 5 -10 11 -10 5 0 7 5 4 10 -3 6 -8 10 -11 10 -2 0
-4 -4 -4 -10z"/>
<path d="M3475 4260 c-3 -5 -1 -10 4 -10 6 0 11 5 11 10 0 6 -2 10 -4 10 -3 0
-8 -4 -11 -10z"/>
<path d="M3830 4262 c0 -5 7 -9 15 -9 8 0 12 4 9 9 -3 4 -9 8 -15 8 -5 0 -9
-4 -9 -8z"/>
<path d="M1300 4239 c0 -5 5 -7 10 -4 6 3 10 8 10 11 0 2 -4 4 -10 4 -5 0 -10
-5 -10 -11z"/>
<path d="M1796 4242 c-2 -4 -1 -14 4 -22 7 -11 9 -9 7 8 -1 24 -3 26 -11 14z"/>
<path d="M1175 4230 c3 -5 11 -10 16 -10 6 0 7 5 4 10 -3 6 -11 10 -16 10 -6
0 -7 -4 -4 -10z"/>
<path d="M3160 4161 c0 -10 19 -25 25 -20 1 2 -3 10 -11 17 -8 7 -14 8 -14 3z"/>
<path d="M3265 4160 c-3 -6 1 -7 9 -4 18 7 21 14 7 14 -6 0 -13 -4 -16 -10z"/>
<path d="M3135 4150 c-4 -6 -12 -7 -18 -4 -7 4 -9 4 -5 -1 4 -4 2 -15 -5 -24
-7 -9 -2 -8 15 4 15 11 28 23 28 28 0 10 -8 9 -15 -3z"/>
<path d="M4010 4120 c0 -5 5 -10 11 -10 5 0 7 5 4 10 -3 6 -8 10 -11 10 -2 0
-4 -4 -4 -10z"/>
<path d="M2068 4103 c10 -4 10 -8 0 -21 -12 -14 -11 -14 9 -1 16 9 19 16 10
21 -7 4 -16 7 -22 7 -5 0 -4 -3 3 -6z"/>
<path d="M3066 4078 c3 -5 10 -6 15 -3 13 9 11 12 -6 12 -8 0 -12 -4 -9 -9z"/>
<path d="M2108 4063 c6 -2 18 -2 25 0 6 3 1 5 -13 5 -14 0 -19 -2 -12 -5z"/>
<path d="M2368 4036 c3 -11 7 -15 10 -8 2 7 8 10 12 7 5 -3 12 0 16 6 4 8 3 9
-4 5 -7 -4 -12 -3 -12 2 0 5 -6 9 -14 9 -8 0 -11 -8 -8 -21z"/>
<path d="M2667 4043 c-12 -13 -17 -14 -17 -4 0 11 -3 11 -15 1 -8 -7 -15 -18
-15 -24 0 -7 3 -7 8 1 4 7 17 11 28 9 28 -6 52 10 38 24 -7 7 -15 5 -27 -7z"/>
<path d="M2869 4043 c-10 -12 -10 -15 -1 -9 7 4 20 2 30 -6 16 -12 16 -11 2 7
-8 11 -15 21 -16 23 -1 1 -7 -5 -15 -15z"/>
<path d="M2753 4037 c0 -8 6 -14 13 -14 7 0 10 6 7 14 -3 7 -8 13 -12 13 -4 0
-8 -6 -8 -13z"/>
<path d="M2543 4033 c4 -3 1 -13 -6 -22 -11 -14 -10 -14 6 -2 20 15 22 31 5
31 -6 0 -8 -3 -5 -7z"/>
<path d="M2590 4020 c0 -5 5 -10 10 -10 6 0 10 5 10 10 0 6 -4 10 -10 10 -5 0
-10 -4 -10 -10z"/>
<path d="M4117 4013 c-4 -3 -7 -13 -7 -21 0 -18 13 -7 16 13 2 17 1 18 -9 8z"/>
<path d="M1014 3962 c4 -3 14 -7 22 -8 9 -1 13 0 10 4 -4 3 -14 7 -22 8 -9 1
-13 0 -10 -4z"/>
<path d="M965 3719 c-4 -6 -4 -13 -1 -16 3 -4 6 -1 6 6 0 7 5 9 10 6 6 -3 10
-1 10 4 0 14 -17 14 -25 0z"/>
<path d="M990 3641 c0 -6 4 -13 10 -16 6 -3 7 1 4 9 -7 18 -14 21 -14 7z"/>
<path d="M4121 3586 c-10 -11 -9 -14 1 -12 14 2 23 15 15 22 -2 2 -10 -2 -16
-10z"/>
<path d="M1015 3581 c-3 -5 -2 -12 3 -15 5 -3 9 1 9 9 0 17 -3 19 -12 6z"/>
<path d="M4075 3560 c3 -5 8 -10 11 -10 2 0 4 5 4 10 0 6 -5 10 -11 10 -5 0
-7 -4 -4 -10z"/>
<path d="M4123 3548 c-20 -33 -6 -51 17 -23 11 13 10 14 -6 8 -17 -6 -17 -5
-5 10 7 9 11 17 8 17 -3 0 -9 -6 -14 -12z"/>
<path d="M1011 3453 c-1 -17 16 -25 25 -12 4 7 3 9 -4 5 -5 -3 -13 0 -15 6 -4
9 -6 10 -6 1z"/>
<path d="M1050 3371 c0 -6 4 -13 10 -16 6 -3 7 1 4 9 -7 18 -14 21 -14 7z"/>
<path d="M4046 3362 c-3 -5 1 -9 9 -9 8 0 12 4 9 9 -3 4 -7 8 -9 8 -2 0 -6 -4
-9 -8z"/>
<path d="M1075 3330 c-4 -6 -11 -8 -16 -5 -5 4 -9 1 -9 -4 0 -16 16 -13 30 4
7 8 10 15 7 15 -3 0 -9 -5 -12 -10z"/>
<path d="M4064 3328 c3 -15 26 -23 26 -8 0 6 -4 9 -9 6 -5 -4 -12 -1 -14 4 -3
6 -4 5 -3 -2z"/>
<path d="M995 3320 c3 -5 8 -10 11 -10 2 0 4 5 4 10 0 6 -5 10 -11 10 -5 0 -7
-4 -4 -10z"/>
<path d="M4050 3288 c0 -2 9 -11 20 -21 11 -9 20 -13 20 -7 0 5 -9 14 -20 20
-11 6 -20 9 -20 8z"/>
<path d="M1075 3271 c-3 -5 -2 -12 3 -15 5 -3 9 1 9 9 0 17 -3 19 -12 6z"/>
<path d="M4035 3211 c-3 -5 0 -13 6 -17 7 -4 9 -3 5 4 -3 5 0 13 6 15 9 4 10
6 1 6 -6 1 -14 -3 -18 -8z"/>
<path d="M1070 3201 c0 -6 4 -13 10 -16 6 -3 7 1 4 9 -7 18 -14 21 -14 7z"/>
<path d="M1083 3038 c-4 -7 -8 -17 -9 -23 -1 -5 -3 -16 -5 -24 -2 -7 4 -15 15
-16 14 -3 16 -1 7 8 -15 15 -14 30 2 21 9 -6 9 -5 0 7 -10 12 -10 18 -1 27 7
7 9 12 6 12 -4 0 -10 -6 -15 -12z"/>
<path d="M4040 2970 c12 -8 13 -11 1 -19 -11 -7 -11 -9 0 -14 11 -4 11 -6 1
-6 -7 -1 -10 -6 -7 -12 5 -6 12 -4 20 8 15 20 3 53 -18 53 -8 0 -6 -4 3 -10z"/>
<path d="M4016 2902 c-3 -5 1 -9 9 -9 8 0 12 4 9 9 -3 4 -7 8 -9 8 -2 0 -6 -4
-9 -8z"/>
<path d="M4020 2782 c0 -5 7 -9 15 -9 8 0 15 4 15 9 0 4 -7 8 -15 8 -8 0 -15
-4 -15 -8z"/>
<path d="M3956 2682 c-3 -5 1 -9 9 -9 8 0 12 4 9 9 -3 4 -7 8 -9 8 -2 0 -6 -4
-9 -8z"/>
<path d="M3949 2637 c6 -8 7 -18 3 -22 -4 -5 -1 -5 6 -1 10 6 10 11 1 22 -6 8
-14 14 -16 14 -3 0 0 -6 6 -13z"/>
<path d="M3970 2515 c7 -9 8 -15 0 -20 -5 -3 -10 -12 -10 -18 0 -8 3 -9 8 -1
4 6 15 15 24 20 15 8 14 11 -8 21 -21 10 -24 10 -14 -2z"/>
<path d="M3941 2444 c0 -11 3 -14 6 -6 3 7 2 16 -1 19 -3 4 -6 -2 -5 -13z"/>
<path d="M3950 2365 c0 -9 5 -15 11 -13 6 2 11 8 11 13 0 5 -5 11 -11 13 -6 2
-11 -4 -11 -13z"/>
<path d="M3921 2276 c-9 -10 -9 -16 -1 -21 6 -4 10 -3 9 2 -3 19 2 23 21 13
11 -6 20 -8 20 -6 0 3 -9 10 -19 15 -14 8 -22 7 -30 -3z"/>
<path d="M1179 2278 c-4 -15 -6 -50 -3 -40 8 18 24 4 18 -16 -5 -14 -4 -15 5
-2 7 10 6 19 -5 31 -8 8 -11 19 -7 22 3 4 3 7 0 7 -4 0 -7 -1 -8 -2z"/>
<path d="M2551 2253 c7 -12 15 -20 18 -17 3 2 -3 12 -13 22 -17 16 -18 16 -5
-5z"/>
<path d="M2675 2249 c-4 -6 -14 -8 -23 -4 -9 3 -13 3 -9 -1 4 -4 2 -13 -3 -19
-7 -9 -6 -16 5 -25 10 -9 15 -9 15 -1 0 6 -6 11 -12 11 -7 0 1 11 17 25 17 13
27 24 23 25 -4 0 -10 -5 -13 -11z"/>
<path d="M2440 2240 c0 -5 5 -10 11 -10 5 0 7 5 4 10 -3 6 -8 10 -11 10 -2 0
-4 -4 -4 -10z"/>
<path d="M2495 2239 c-4 -6 -5 -12 -2 -15 2 -3 7 2 10 11 7 17 1 20 -8 4z"/>
<path d="M2524 2241 c4 -6 2 -11 -3 -11 -6 0 -11 -5 -11 -12 0 -6 3 -8 7 -5 3
4 14 1 22 -7 9 -8 22 -12 29 -7 8 5 3 14 -19 30 -18 13 -29 19 -25 12z m27
-28 c13 -16 12 -17 -3 -4 -10 7 -18 15 -18 17 0 8 8 3 21 -13z"/>
<path d="M2467 2218 c-3 -8 -2 -21 3 -27 11 -19 23 5 12 25 -8 14 -10 14 -15
2z"/>
<path d="M2673 2214 c-3 -8 0 -21 6 -27 9 -9 11 -8 5 7 -4 11 -2 21 7 27 10 6
11 9 1 9 -7 0 -15 -7 -19 -16z"/>
<path d="M2428 2213 c7 -3 16 -2 19 1 4 3 -2 6 -13 5 -11 0 -14 -3 -6 -6z"/>
<path d="M2705 2190 c10 -11 20 -18 23 -16 5 6 -23 36 -34 36 -4 0 1 -9 11
-20z"/>
<path d="M2736 2198 c3 -5 10 -6 15 -3 13 9 11 12 -6 12 -8 0 -12 -4 -9 -9z"/>
<path d="M2364 2165 c-4 -9 -13 -14 -20 -11 -8 3 -11 0 -8 -8 3 -9 -4 -12 -25
-11 -32 2 -55 -8 -57 -25 -1 -5 -2 -14 -3 -20 0 -5 -6 -9 -13 -7 -7 1 -13 -5
-14 -13 -3 -37 -5 -41 -14 -35 -5 3 -7 13 -4 23 5 14 3 14 -6 -2 -10 -15 -9
-20 1 -27 10 -6 11 -9 2 -9 -7 0 -13 -7 -13 -16 0 -12 7 -8 22 12 13 16 29 34
38 41 8 7 11 13 6 13 -5 0 -3 7 4 15 6 8 9 18 6 24 -3 5 1 11 9 15 8 3 15 0
15 -6 0 -7 5 -6 15 2 8 6 18 9 24 6 5 -4 18 5 29 19 14 17 22 21 25 13 4 -9 6
-9 6 -1 1 19 -19 26 -25 8z"/>
<path d="M1190 2046 c0 -2 7 -7 16 -10 8 -3 12 -2 9 4 -6 10 -25 14 -25 6z"/>
<path d="M3901 2034 c0 -11 3 -14 6 -6 3 7 2 16 -1 19 -3 4 -6 -2 -5 -13z"/>
<path d="M2155 2010 c-4 -6 -3 -16 3 -22 13 -13 23 4 13 21 -7 10 -10 10 -16
1z"/>
<path d="M1214 1999 c-3 -6 -2 -15 3 -20 5 -5 9 -1 9 11 0 23 -2 24 -12 9z"/>
<path d="M1259 1938 c-5 -18 -6 -38 -1 -34 7 8 12 36 6 36 -2 0 -4 -1 -5 -2z"/>
<path d="M2993 1925 c0 -8 4 -15 9 -15 4 0 8 7 8 15 0 8 -4 15 -8 15 -5 0 -9
-7 -9 -15z"/>
<path d="M2065 1879 c4 -5 1 -17 -6 -25 -6 -8 -9 -17 -5 -21 3 -3 6 0 6 8 0
11 2 11 9 1 6 -10 10 -10 21 3 9 11 9 15 1 15 -7 0 -10 4 -7 9 3 5 -1 12 -10
15 -9 3 -12 2 -9 -5z"/>
<path d="M3850 1881 c0 -6 4 -13 10 -16 6 -3 7 1 4 9 -7 18 -14 21 -14 7z"/>
<path d="M2036 1863 c-6 -14 -5 -15 5 -6 7 7 10 15 7 18 -3 3 -9 -2 -12 -12z"/>
<path d="M3076 1867 c3 -10 9 -15 12 -12 3 3 0 11 -7 18 -10 9 -11 8 -5 -6z"/>
<path d="M3871 1847 c-13 -21 -12 -21 5 -5 10 10 16 20 13 22 -3 3 -11 -5 -18
-17z"/>
<path d="M3809 1843 c-13 -16 -12 -17 4 -4 16 13 21 21 13 21 -2 0 -10 -8 -17
-17z"/>
<path d="M1226 1831 c-14 -6 -16 -10 -7 -15 7 -5 10 -15 7 -23 -4 -8 -2 -11 5
-7 8 4 9 -1 5 -17 -6 -20 -5 -21 4 -7 7 12 8 24 1 36 -7 13 -7 22 1 30 13 13
11 14 -16 3z"/>
<path d="M1264 1824 c-18 -14 -18 -15 4 -4 12 6 22 13 22 15 0 8 -5 6 -26 -11z"/>
<path d="M1997 1813 c-11 -11 -8 -21 9 -27 13 -5 14 -4 6 7 -7 8 -9 17 -5 20
3 4 4 7 1 7 -2 0 -8 -3 -11 -7z"/>
<path d="M1265 1800 c-3 -6 1 -7 9 -4 18 7 21 14 7 14 -6 0 -13 -4 -16 -10z"/>
<path d="M3110 1790 c0 -5 5 -10 11 -10 5 0 7 5 4 10 -3 6 -8 10 -11 10 -2 0
-4 -4 -4 -10z"/>
<path d="M3850 1780 c0 -5 5 -10 11 -10 5 0 7 5 4 10 -3 6 -8 10 -11 10 -2 0
-4 -4 -4 -10z"/>
<path d="M1268 1763 c7 -3 16 -2 19 1 4 3 -2 6 -13 5 -11 0 -14 -3 -6 -6z"/>
<path d="M3130 1760 c0 -5 5 -10 11 -10 5 0 7 5 4 10 -3 6 -8 10 -11 10 -2 0
-4 -4 -4 -10z"/>
<path d="M3835 1750 c-3 -6 1 -7 9 -4 18 7 21 14 7 14 -6 0 -13 -4 -16 -10z"/>
<path d="M1959 1718 c-1 -7 -1 -16 0 -20 0 -5 -3 -8 -9 -8 -5 0 -10 -5 -10
-12 0 -9 3 -9 12 0 12 12 22 52 13 52 -3 0 -6 -6 -6 -12z"/>
<path d="M3175 1720 c3 -5 8 -10 11 -10 2 0 4 5 4 10 0 6 -5 10 -11 10 -5 0
-7 -4 -4 -10z"/>
<path d="M1917 1693 c-10 -9 -9 -23 1 -23 5 0 9 7 9 15 0 17 -1 18 -10 8z"/>
<path d="M3851 1679 c5 -11 14 -17 20 -14 15 10 10 22 -11 28 -17 4 -18 2 -9
-14z"/>
<path d="M1903 1630 c1 -23 -2 -34 -10 -32 -7 1 -12 -2 -10 -7 1 -5 -2 -8 -8
-7 -5 0 -9 8 -7 16 2 13 2 13 -7 0 -7 -9 -6 -19 1 -28 9 -10 17 -8 39 14 18
17 25 32 20 38 -5 6 -11 18 -14 26 -3 8 -5 -1 -4 -20z"/>
<path d="M3834 1649 c-11 -18 11 -32 25 -16 9 12 8 16 -3 20 -9 4 -18 1 -22
-4z"/>
<path d="M3850 1610 c-8 -5 -10 -10 -5 -10 6 0 3 -5 -5 -10 -8 -5 -10 -10 -5
-10 14 0 30 13 33 28 2 14 1 15 -18 2z"/>
<path d="M3255 1560 c-3 -5 -1 -10 4 -10 6 0 11 5 11 10 0 6 -2 10 -4 10 -3 0
-8 -4 -11 -10z"/>
<path d="M1810 1540 c-9 -6 -10 -10 -3 -10 6 0 15 5 18 10 8 12 4 12 -15 0z"/>
<path d="M3287 1516 c-3 -8 -2 -18 3 -21 13 -8 20 9 11 24 -6 10 -10 9 -14 -3z"/>
<path d="M1273 1505 c0 -8 4 -12 9 -9 4 3 8 9 8 15 0 5 -4 9 -8 9 -5 0 -9 -7
-9 -15z"/>
<path d="M1289 1488 c-4 -15 -6 -50 -3 -40 3 6 11 9 17 5 8 -5 8 -2 0 9 -7 8
-10 18 -6 21 3 4 3 7 0 7 -4 0 -7 -1 -8 -2z"/>
<path d="M1760 1436 c0 -2 7 -7 16 -10 8 -3 12 -2 9 4 -6 10 -25 14 -25 6z"/>
<path d="M3388 1383 c7 -3 16 -2 19 1 4 3 -2 6 -13 5 -11 0 -14 -3 -6 -6z"/>
<path d="M3400 1366 c0 -2 7 -7 16 -10 8 -3 12 -2 9 4 -6 10 -25 14 -25 6z"/>
<path d="M3810 1348 c0 -4 4 -8 9 -8 6 0 12 4 15 8 3 5 -1 9 -9 9 -8 0 -15 -4
-15 -9z"/>
<path d="M3416 1331 c-3 -5 2 -15 12 -22 15 -12 16 -12 5 2 -7 9 -10 19 -6 22
3 4 4 7 0 7 -3 0 -8 -4 -11 -9z"/>
<path d="M3802 1314 c-7 -8 -9 -14 -4 -14 5 0 9 -7 9 -15 0 -14 -14 -19 -47
-16 -8 1 -4 -5 10 -13 22 -13 26 -13 37 0 6 8 10 23 8 32 -1 9 2 20 7 23 6 4
6 9 2 12 -5 3 -15 -1 -22 -9z"/>
<path d="M1668 1285 c-15 -19 -15 -23 -3 -21 22 3 35 19 27 33 -5 7 -13 3 -24
-12z"/>
<path d="M1352 1291 c-11 -7 -11 -9 0 -14 9 -3 15 1 15 9 0 8 -1 14 -1 14 -1
0 -7 -4 -14 -9z"/>
<path d="M3473 1253 c-3 -10 -8 -22 -11 -27 -3 -5 0 -6 5 -3 11 7 25 47 17 47
-3 0 -7 -8 -11 -17z"/>
<path d="M1625 1243 c3 -12 1 -24 -5 -28 -5 -3 -10 -10 -10 -15 0 -5 12 2 26
15 15 14 30 22 35 19 5 -3 9 0 9 6 0 6 -11 8 -24 6 -14 -2 -27 1 -30 7 -3 7
-3 2 -1 -10z"/>
<path d="M1390 1238 c0 -18 38 -69 44 -59 4 6 3 11 -1 11 -5 0 -16 12 -25 28
-10 15 -18 24 -18 20z"/>
<path d="M1596 1223 c-6 -14 -5 -15 5 -6 7 7 10 15 7 18 -3 3 -9 -2 -12 -12z"/>
<path d="M3731 1212 c-1 -7 -5 -10 -11 -7 -6 3 -7 -1 -4 -10 4 -11 10 -13 16
-7 6 6 8 16 5 24 -4 10 -6 10 -6 0z"/>
<path d="M1466 1194 c-20 -14 -16 -26 10 -30 11 -2 12 1 4 11 -8 10 -7 14 2
18 7 2 11 7 8 10 -3 3 -14 -1 -24 -9z"/>
<path d="M3528 1196 c-10 -7 -15 -16 -11 -19 3 -4 12 1 20 11 14 16 14 16 9 0
-3 -10 -1 -20 4 -23 15 -9 20 11 7 28 -10 13 -15 14 -29 3z"/>
<path d="M3576 1190 c5 -8 9 -18 9 -22 0 -5 4 -8 8 -9 18 -2 16 9 -5 27 -13
11 -18 13 -12 4z"/>
<path d="M1070 2725 c7 -9 15 -13 17 -11 7 7 -7 26 -19 26 -6 0 -6 -6 2 -15z"/>
<path d="M4312 2445 c4 -4 3 -16 -3 -26 -5 -11 -7 -19 -5 -19 3 0 10 9 16 19
7 15 7 22 -2 27 -7 4 -10 4 -6 -1z"/>
<path d="M1610 4703 c0 -1 8 -7 18 -12 13 -7 19 -6 19 2 0 7 -9 13 -19 13 -10
0 -18 -1 -18 -3z"/>
<path d="M3454 4701 c4 -6 0 -14 -8 -17 -9 -3 -16 -10 -16 -15 0 -15 15 -10
27 11 9 14 10 21 1 26 -7 4 -8 3 -4 -5z"/>
<path d="M3570 4699 c0 -5 5 -7 10 -4 6 3 10 8 10 11 0 2 -4 4 -10 4 -5 0 -10
-5 -10 -11z"/>
<path d="M3777 4703 c-4 -3 -7 -15 -7 -25 0 -10 -5 -18 -11 -18 -5 0 -8 4 -5
8 2 4 0 14 -6 22 -8 12 -9 11 -4 -3 4 -12 2 -17 -6 -14 -7 2 -12 10 -10 16 3
17 -6 13 -17 -7 -7 -14 -6 -18 7 -20 24 -2 67 -10 70 -12 1 -2 7 -3 13 -4 6 0
16 -9 23 -19 13 -16 14 -16 27 0 11 13 11 17 1 20 -6 3 -10 8 -8 12 3 4 -1 8
-9 8 -8 0 -12 -4 -9 -8 2 -4 -5 -7 -16 -6 -21 1 -36 29 -25 47 7 11 2 13 -8 3z
m68 -63 c3 -5 1 -10 -4 -10 -6 0 -11 5 -11 10 0 6 2 10 4 10 3 0 8 -4 11 -10z"/>
<path d="M1535 4690 c3 -5 8 -10 11 -10 2 0 4 5 4 10 0 6 -5 10 -11 10 -5 0
-7 -4 -4 -10z"/>
<path d="M1693 4685 c0 -8 4 -12 9 -9 5 3 6 10 3 15 -9 13 -12 11 -12 -6z"/>
<path d="M3795 4691 c-3 -5 0 -13 6 -17 7 -4 9 -3 5 4 -3 5 0 13 6 15 9 4 10
6 1 6 -6 1 -14 -3 -18 -8z"/>
<path d="M1351 4678 c3 -25 -1 -39 -10 -34 -5 3 -11 -1 -14 -9 -4 -9 -1 -12 7
-9 8 3 17 1 21 -5 3 -6 11 -11 17 -11 7 0 7 4 0 13 -5 6 -9 24 -7 40 2 15 -1
27 -6 27 -6 0 -9 -6 -8 -12z"/>
<path d="M1594 4679 c-9 -15 2 -22 36 -24 37 -2 37 0 0 18 -19 10 -32 12 -36
6z"/>
<path d="M3515 4680 c3 -5 8 -10 11 -10 2 0 4 5 4 10 0 6 -5 10 -11 10 -5 0
-7 -4 -4 -10z"/>
<path d="M3359 4678 c-9 -30 -6 -37 12 -28 23 13 25 22 2 13 -11 -4 -14 -3 -9
5 4 7 5 12 2 12 -3 0 -6 -1 -7 -2z"/>
<path d="M3675 4670 c3 -5 8 -10 11 -10 2 0 4 5 4 10 0 6 -5 10 -11 10 -5 0
-7 -4 -4 -10z"/>
<path d="M1236 4662 c-2 -4 -1 -14 4 -22 5 -9 5 -19 -2 -27 -8 -10 -6 -13 6
-13 10 0 14 5 11 10 -5 9 6 14 26 12 3 -1 6 5 6 13 0 8 -4 12 -8 9 -4 -2 -9
-1 -12 3 -2 5 -2 2 -1 -4 2 -7 -1 -13 -6 -13 -9 0 -14 14 -11 33 1 9 -7 9 -13
-1z"/>
<path d="M3870 4660 c0 -5 5 -10 11 -10 5 0 7 5 4 10 -3 6 -8 10 -11 10 -2 0
-4 -4 -4 -10z"/>
<path d="M1738 4644 c6 -12 9 -23 7 -26 -3 -3 2 -5 10 -5 20 0 19 4 -6 30 -21
21 -21 21 -11 1z"/>
<path d="M1130 4626 c0 -4 7 -14 15 -22 8 -9 15 -11 15 -6 0 5 -7 15 -15 22
-8 7 -15 9 -15 6z"/>
<path d="M3226 4622 c-3 -4 4 -9 15 -9 23 -2 25 3 4 10 -8 4 -16 3 -19 -1z"/>
<path d="M3953 4613 c-7 -2 -13 -9 -13 -15 0 -7 5 -7 13 1 8 6 18 7 22 3 5 -4
5 -1 1 6 -4 6 -8 12 -9 11 -1 0 -8 -3 -14 -6z"/>
<path d="M1873 4600 c2 -8 8 -15 13 -15 5 -1 19 -6 32 -13 12 -7 22 -10 22 -6
0 3 6 2 13 -4 10 -8 13 -6 14 9 2 20 -23 27 -29 7 -3 -8 -12 -4 -26 10 -13 13
-22 17 -22 10 0 -9 -4 -8 -11 2 -9 13 -10 13 -6 0z"/>
<path d="M1916 4598 c3 -5 10 -6 15 -3 13 9 11 12 -6 12 -8 0 -12 -4 -9 -9z"/>
<path d="M3086 4558 c3 -4 9 -8 15 -8 5 0 9 4 9 8 0 5 -7 9 -15 9 -8 0 -12 -4
-9 -9z"/>
<path d="M4110 4510 c10 -18 60 -55 60 -44 0 4 7 1 15 -6 8 -7 13 -15 11 -19
-3 -4 4 -12 14 -19 11 -7 21 -8 25 -2 3 5 13 7 23 4 14 -5 14 -4 2 4 -8 6 -17
9 -21 6 -4 -2 -10 5 -14 16 -3 11 -11 20 -16 20 -6 0 -8 4 -5 8 5 9 -9 12 -52
13 -20 1 -21 3 -10 18 12 15 11 15 -6 1 -18 -13 -19 -13 -14 1 4 9 1 16 -7 16
-10 0 -11 -5 -5 -17z m60 -30 c0 -5 -2 -10 -4 -10 -3 0 -8 5 -11 10 -3 6 -1
10 4 10 6 0 11 -4 11 -10z m51 -42 c15 -28 5 -21 -21 15 -15 20 -17 27 -6 18
9 -8 22 -23 27 -33z"/>
<path d="M3015 4489 c-4 -6 -5 -12 -2 -15 2 -3 7 2 10 11 7 17 1 20 -8 4z"/>
<path d="M2916 4475 c5 -11 2 -14 -12 -8 -14 4 -12 0 6 -15 20 -17 22 -21 8
-22 -9 0 -19 -4 -22 -9 -8 -13 22 -7 35 6 7 7 8 13 0 17 -5 4 -8 13 -5 20 3 8
1 17 -5 21 -7 3 -8 0 -5 -10z"/>
<path d="M856 4461 c9 -9 34 -9 34 -1 0 5 -9 8 -20 7 -10 -1 -17 -3 -14 -6z"/>
<path d="M4236 4458 c3 -5 10 -6 15 -3 13 9 11 12 -6 12 -8 0 -12 -4 -9 -9z"/>
<path d="M2864 4438 c-4 -5 -3 -12 0 -15 3 -4 6 -1 6 6 0 7 4 10 9 6 5 -3 12
-2 15 3 3 5 -2 9 -10 9 -8 0 -17 -4 -20 -9z"/>
<path d="M2606 4397 c3 -10 9 -15 12 -12 3 3 0 11 -7 18 -10 9 -11 8 -5 -6z"/>
<path d="M815 4380 c-3 -5 -1 -10 4 -10 6 0 11 5 11 10 0 6 -2 10 -4 10 -3 0
-8 -4 -11 -10z"/>
<path d="M2627 4377 c-3 -8 1 -14 8 -14 7 0 11 6 8 14 -3 7 -6 13 -8 13 -2 0
-5 -6 -8 -13z"/>
<path d="M770 4340 c0 -5 5 -10 11 -10 5 0 7 5 4 10 -3 6 -8 10 -11 10 -2 0
-4 -4 -4 -10z"/>
<path d="M4305 4300 c4 -6 10 -8 15 -5 5 3 16 -8 25 -25 9 -17 20 -28 25 -25
16 10 11 25 -7 25 -15 0 -16 2 -3 10 13 8 12 10 -3 10 -10 0 -16 4 -13 8 2 4
-7 9 -20 10 -15 1 -23 -2 -19 -8z"/>
<path d="M4387 4279 c7 -7 15 -10 18 -7 3 3 -2 9 -12 12 -14 6 -15 5 -6 -5z"/>
<path d="M690 4179 c0 -5 5 -7 10 -4 6 3 10 8 10 11 0 2 -4 4 -10 4 -5 0 -10
-5 -10 -11z"/>
<path d="M4465 4140 c-3 -6 1 -7 9 -4 18 7 21 14 7 14 -6 0 -13 -4 -16 -10z"/>
<path d="M4442 4108 c-13 -13 2 -48 21 -48 9 0 8 3 -1 9 -14 9 -13 32 3 43 7
5 6 8 0 8 -6 0 -16 -5 -23 -12z"/>
<path d="M4477 4103 c-10 -9 -9 -23 1 -23 5 0 9 7 9 15 0 17 -1 18 -10 8z"/>
<path d="M625 4080 c-3 -6 1 -7 9 -4 18 7 21 14 7 14 -6 0 -13 -4 -16 -10z"/>
<path d="M4477 3953 c-4 -3 -7 -11 -7 -17 0 -6 5 -5 12 2 6 6 9 14 7 17 -3 3
-9 2 -12 -2z"/>
<path d="M620 3860 c0 -5 7 -7 15 -4 8 4 15 8 15 10 0 2 -7 4 -15 4 -8 0 -15
-4 -15 -10z"/>
<path d="M635 3840 c-3 -5 -1 -10 4 -10 6 0 11 5 11 10 0 6 -2 10 -4 10 -3 0
-8 -4 -11 -10z"/>
<path d="M627 3805 c3 -8 9 -12 14 -9 12 7 11 11 -5 17 -10 4 -13 1 -9 -8z"/>
<path d="M621 3714 c-7 -8 -11 -17 -9 -20 3 -2 13 5 23 16 10 11 14 20 9 20
-5 -1 -15 -8 -23 -16z"/>
<path d="M618 3578 c8 -9 10 -23 6 -29 -4 -7 -3 -9 4 -5 6 3 13 2 16 -3 3 -5
-1 -11 -9 -15 -16 -6 -10 -36 8 -36 6 0 7 3 4 6 -3 4 -2 15 3 25 7 12 7 20 0
24 -8 5 -7 12 2 23 11 13 11 14 0 8 -7 -4 -20 -2 -30 6 -15 12 -16 11 -4 -4z"/>
<path d="M4474 3535 c-18 -13 -18 -14 4 -8 12 3 25 9 28 14 8 14 -10 11 -32
-6z"/>
<path d="M4473 3465 c0 -8 4 -15 9 -15 4 0 8 4 8 9 0 6 -4 12 -8 15 -5 3 -9
-1 -9 -9z"/>
<path d="M634 3320 c0 -13 4 -16 10 -10 7 7 7 13 0 20 -6 6 -10 3 -10 -10z"/>
<path d="M635 3220 c-3 -5 -1 -10 4 -10 6 0 11 5 11 10 0 6 -2 10 -4 10 -3 0
-8 -4 -11 -10z"/>
<path d="M4431 3203 c-1 -6 3 -14 7 -17 12 -7 38 12 29 21 -5 4 -12 1 -16 -6
-7 -11 -10 -11 -14 0 -3 9 -6 10 -6 2z"/>
<path d="M635 3169 c-4 -6 -5 -12 -2 -15 2 -3 7 2 10 11 7 17 1 20 -8 4z"/>
<path d="M4455 3170 c-4 -6 -11 -8 -16 -5 -5 4 -9 1 -9 -4 0 -16 16 -13 30 4
7 8 10 15 7 15 -3 0 -9 -5 -12 -10z"/>
<path d="M4404 3149 c-7 -12 17 -32 26 -22 3 3 -1 8 -8 10 -6 3 -10 9 -6 14 3
5 3 9 0 9 -3 0 -8 -5 -12 -11z"/>
<path d="M4446 3123 c-4 -9 -3 -20 1 -24 4 -4 9 3 9 17 2 28 -1 31 -10 7z"/>
<path d="M675 3101 c-3 -5 -2 -12 3 -15 5 -3 9 1 9 9 0 17 -3 19 -12 6z"/>
<path d="M720 3080 c-9 -6 -10 -10 -3 -10 6 0 15 5 18 10 8 12 4 12 -15 0z"/>
<path d="M698 3058 c5 -5 16 -8 23 -6 8 3 3 7 -10 11 -17 4 -21 3 -13 -5z"/>
<path d="M4435 3041 c-3 -5 -2 -12 3 -15 5 -3 9 1 9 9 0 17 -3 19 -12 6z"/>
<path d="M4393 2829 c-2 -23 3 -25 10 -4 4 8 3 16 -1 19 -4 3 -9 -4 -9 -15z"/>
<path d="M716 2783 c-6 -14 -5 -15 5 -6 7 7 10 15 7 18 -3 3 -9 -2 -12 -12z"/>
<path d="M735 2700 c6 -33 21 -54 29 -41 4 6 2 11 -3 11 -6 0 -11 5 -11 11 0
5 6 7 13 3 6 -4 3 2 -7 14 -23 27 -26 27 -21 2z"/>
<path d="M716 2642 c-3 -5 1 -9 9 -9 8 0 12 4 9 9 -3 4 -7 8 -9 8 -2 0 -6 -4
-9 -8z"/>
<path d="M730 2579 c0 -5 5 -7 10 -4 6 3 10 8 10 11 0 2 -4 4 -10 4 -5 0 -10
-5 -10 -11z"/>
<path d="M740 2485 c0 -8 4 -15 10 -15 5 0 7 7 4 15 -4 8 -8 15 -10 15 -2 0
-4 -7 -4 -15z"/>
<path d="M4369 2363 c-13 -16 -12 -17 4 -4 16 13 21 21 13 21 -2 0 -10 -8 -17
-17z"/>
<path d="M760 2358 c-12 -8 -12 -9 2 -5 9 3 19 1 22 -6 3 -9 5 -9 5 0 1 18
-13 23 -29 11z"/>
<path d="M806 2314 c17 -12 17 -13 2 -8 -11 4 -18 1 -18 -6 0 -6 5 -8 10 -5 9
6 12 -8 13 -63 0 -21 1 -22 15 -8 12 12 13 18 3 30 -8 10 -9 16 -1 21 7 4 7
12 0 24 -5 10 -7 20 -5 23 2 2 -5 5 -17 5 -20 2 -20 1 -2 -13z"/>
<path d="M4286 2255 c-18 -14 -18 -15 -1 -21 17 -7 17 -8 -1 -21 -10 -7 -13
-13 -7 -13 6 0 16 7 23 15 7 8 9 15 5 15 -4 0 1 8 12 18 10 9 14 14 9 10 -14
-11 -28 -10 -21 2 8 13 4 12 -19 -5z"/>
<path d="M4356 2258 c3 -5 10 -6 15 -3 13 9 11 12 -6 12 -8 0 -12 -4 -9 -9z"/>
<path d="M835 2113 c-3 -10 -1 -19 5 -21 8 -3 7 -8 -1 -19 -10 -11 -10 -16 0
-22 16 -10 14 -21 -7 -46 -15 -18 -15 -18 0 -7 13 10 17 10 21 0 3 -7 4 1 3
19 -1 18 -5 36 -9 39 -4 4 -2 13 4 20 6 8 7 14 0 18 -6 4 -8 13 -4 21 3 8 3
15 0 15 -3 0 -8 -8 -12 -17z"/>
<path d="M2602 1887 c-8 -10 -6 -13 8 -14 13 -1 17 3 13 13 -6 17 -8 17 -21 1z"/>
<path d="M2519 1828 c-6 -21 -5 -37 2 -32 5 3 6 10 3 16 -5 8 -1 9 10 5 10 -4
15 -3 11 3 -5 9 -24 14 -26 8z"/>
<path d="M2466 1763 c-6 -14 -5 -15 5 -6 7 7 10 15 7 18 -3 3 -9 -2 -12 -12z"/>
<path d="M4270 1763 c7 -3 8 -9 1 -17 -8 -9 -7 -13 3 -13 17 0 14 30 -3 33 -7
2 -7 0 -1 -3z"/>
<path d="M2435 1740 c3 -5 8 -10 11 -10 2 0 4 5 4 10 0 6 -5 10 -11 10 -5 0
-7 -4 -4 -10z"/>
<path d="M2416 1702 c-3 -4 4 -9 15 -9 23 -2 25 3 4 10 -8 4 -16 3 -19 -1z"/>
<path d="M4255 1660 c3 -5 8 -10 11 -10 2 0 4 5 4 10 0 6 -5 10 -11 10 -5 0
-7 -4 -4 -10z"/>
<path d="M856 1637 c3 -10 9 -15 12 -12 3 3 0 11 -7 18 -10 9 -11 8 -5 -6z"/>
<path d="M4230 1580 c-11 -7 -11 -10 -2 -10 7 0 10 -4 7 -10 -4 -6 1 -7 11 -3
11 4 13 8 6 11 -7 2 -10 8 -6 13 7 11 3 11 -16 -1z"/>
<path d="M2827 1546 c-4 -10 -1 -13 8 -9 8 3 12 9 9 14 -7 12 -11 11 -17 -5z"/>
<path d="M4196 1518 c3 -4 11 -5 19 -1 21 7 19 12 -4 10 -11 0 -18 -5 -15 -9z"/>
<path d="M915 1509 c-10 -15 3 -25 16 -12 7 7 7 13 1 17 -6 3 -14 1 -17 -5z"/>
<path d="M2239 1503 c-1 -5 -1 -11 0 -15 0 -4 -10 -15 -23 -25 -20 -16 -22
-22 -11 -36 17 -24 24 -21 21 7 -2 17 3 26 17 30 16 4 18 8 9 19 -7 8 -9 17
-5 20 3 4 3 7 0 7 -4 0 -8 -3 -8 -7z"/>
<path d="M2270 1500 c-13 -8 -12 -10 3 -10 9 0 17 5 17 10 0 12 -1 12 -20 0z"/>
<path d="M915 1470 c-6 -9 -4 -11 4 -6 8 5 11 2 9 -9 -2 -10 3 -20 10 -22 16
-6 15 9 -1 32 -11 14 -16 15 -22 5z"/>
<path d="M4191 1451 c-7 -5 -14 -22 -16 -38 -2 -25 1 -30 16 -26 11 3 19 9 19
14 0 5 -6 6 -13 3 -8 -3 -14 2 -14 11 0 8 4 15 8 15 4 0 9 7 13 15 6 17 6 18
-13 6z"/>
<path d="M2934 1389 c-4 -7 -3 -9 4 -5 5 3 12 0 15 -6 2 -7 7 -10 11 -7 4 3 0
12 -8 18 -11 9 -16 9 -22 0z"/>
<path d="M2153 1310 c1 -21 10 -18 13 5 1 8 -2 15 -6 15 -5 0 -8 -9 -7 -20z"/>
<path d="M2975 1261 c-4 -7 0 -8 11 -4 13 5 16 3 11 -10 -3 -9 -2 -19 2 -21 5
-3 8 4 7 16 -1 23 -20 35 -31 19z"/>
<path d="M4163 1255 c0 -7 6 -11 14 -8 7 3 13 6 13 8 0 2 -6 5 -13 8 -8 3 -14
-1 -14 -8z"/>
<path d="M3030 1250 c0 -5 5 -10 11 -10 5 0 7 5 4 10 -3 6 -8 10 -11 10 -2 0
-4 -4 -4 -10z"/>
<path d="M3054 1228 c-4 -6 -2 -14 4 -16 7 -2 12 -10 12 -18 0 -9 5 -12 10 -9
8 5 8 11 1 19 -6 7 -8 15 -5 18 3 3 1 9 -5 12 -5 4 -13 1 -17 -6z"/>
<path d="M4153 1224 c3 -4 2 -16 -4 -28 -10 -20 -10 -20 5 -2 15 18 21 15 17
-7 -1 -5 3 -6 9 -2 11 7 -9 45 -24 45 -5 0 -6 -3 -3 -6z"/>
<path d="M1985 1150 c3 -5 10 -10 16 -10 5 0 9 5 9 10 0 6 -7 10 -16 10 -8 0
-12 -4 -9 -10z"/>
<path d="M3067 1139 c7 -7 15 -10 18 -7 3 3 -2 9 -12 12 -14 6 -15 5 -6 -5z"/>
<path d="M4150 1141 c0 -6 4 -12 8 -15 5 -3 9 1 9 9 0 8 -4 15 -9 15 -4 0 -8
-4 -8 -9z"/>
<path d="M946 1101 c-4 -5 3 -7 14 -4 23 6 26 13 6 13 -8 0 -17 -4 -20 -9z"/>
<path d="M3129 1092 c-15 -13 -19 -21 -10 -26 7 -4 10 -2 9 5 -2 6 3 14 10 16
6 3 12 -2 12 -11 0 -9 4 -16 8 -16 5 0 9 7 9 15 0 8 -4 15 -9 15 -5 0 -6 5 -3
10 9 15 0 12 -26 -8z"/>
<path d="M1947 1085 c-15 -11 -16 -14 -2 -25 13 -11 14 -10 8 6 -6 17 -5 18
12 4 10 -8 16 -10 12 -3 -4 6 -2 13 5 15 8 3 7 6 -3 10 -8 3 -23 0 -32 -7z"/>
<path d="M1015 1079 c-4 -6 -5 -12 -2 -15 2 -3 7 2 10 11 7 17 1 20 -8 4z"/>
<path d="M3175 1049 c-4 -6 -5 -12 -2 -15 2 -3 7 2 10 11 7 17 1 20 -8 4z"/>
<path d="M1015 1040 c-3 -6 1 -7 9 -4 18 7 21 14 7 14 -6 0 -13 -4 -16 -10z"/>
<path d="M1041 1023 c-11 -12 -10 -14 5 -11 20 3 27 -21 9 -35 -6 -5 -2 -6 9
-3 15 5 18 2 14 -19 -3 -13 -2 -22 2 -20 18 11 16 53 -4 78 -18 22 -23 23 -35
10z"/>
<path d="M1856 968 c-7 -10 -15 -15 -18 -12 -3 3 -9 1 -13 -5 -7 -13 51 -9 63
4 4 5 2 5 -5 1 -6 -3 -14 -2 -18 4 -5 9 23 15 48 11 5 -1 6 3 3 8 -10 15 -47
8 -60 -11z"/>
<path d="M3194 962 c4 -3 14 -7 22 -8 9 -1 13 0 10 4 -4 3 -14 7 -22 8 -9 1
-13 0 -10 -4z"/>
<path d="M3300 918 c0 -4 7 -8 16 -8 9 0 14 -6 11 -12 -2 -7 -10 -12 -16 -10
-7 1 -10 -2 -6 -8 8 -13 22 -5 36 22 8 15 8 19 0 14 -6 -4 -11 -3 -11 2 0 5
-7 9 -15 9 -8 0 -15 -4 -15 -9z"/>
<path d="M3884 903 c4 -7 -2 -21 -14 -33 -11 -11 -16 -20 -11 -20 6 0 13 5 16
10 4 6 10 8 14 6 10 -7 7 32 -4 41 -4 5 -5 3 -1 -4z"/>
<path d="M3913 888 c-2 -16 1 -18 10 -9 7 7 8 14 1 21 -6 6 -10 2 -11 -12z"/>
<path d="M1795 880 c3 -5 8 -10 11 -10 2 0 4 5 4 10 0 6 -5 10 -11 10 -5 0 -7
-4 -4 -10z"/>
<path d="M1188 863 c6 -2 9 -10 6 -15 -4 -7 -2 -8 5 -4 13 9 5 26 -12 25 -9 0
-8 -2 1 -6z"/>
<path d="M3370 858 c0 -5 6 -8 13 -5 6 2 18 -3 25 -12 11 -14 11 -14 6 2 -5
13 -2 16 10 11 9 -3 13 -10 10 -15 -3 -5 -1 -9 4 -9 14 0 22 26 9 28 -7 1 -27
3 -44 5 -18 3 -33 0 -33 -5z"/>
<path d="M1610 841 c0 -9 30 -24 36 -18 2 1 -6 8 -16 15 -11 7 -20 8 -20 3z"/>
<path d="M3749 847 c-6 -20 -5 -36 2 -31 5 3 7 10 3 15 -8 13 28 7 39 -6 5 -6
7 -4 5 4 -3 11 -46 28 -49 18z"/>
<path d="M3880 840 c-8 -5 -10 -10 -5 -10 6 0 17 5 25 10 8 5 11 10 5 10 -5 0
-17 -5 -25 -10z"/>
<path d="M1436 819 c2 -4 -1 -9 -8 -11 -7 -3 -5 -7 6 -11 10 -4 15 -3 11 3 -3
6 -1 10 4 10 6 0 11 4 11 8 0 5 -7 9 -15 9 -8 0 -12 -4 -9 -8z"/>
<path d="M1474 802 c3 -5 0 -13 -6 -15 -9 -4 -10 -6 -1 -6 17 -1 25 16 12 25
-7 4 -9 3 -5 -4z"/>
<path d="M1505 800 c-3 -6 1 -7 9 -4 18 7 21 14 7 14 -6 0 -13 -4 -16 -10z"/>
<path d="M1533 775 c0 -8 4 -12 9 -9 5 3 6 10 3 15 -9 13 -12 11 -12 -6z"/>
<path d="M1475 761 c-3 -5 -2 -12 3 -15 5 -3 9 1 9 9 0 17 -3 19 -12 6z"/>
<path d="M3574 762 c4 -3 14 -7 22 -8 9 -1 13 0 10 4 -4 3 -14 7 -22 8 -9 1
-13 0 -10 -4z"/>
</g>
</svg>
